<svg xmlns="http://www.w3.org/2000/svg" xmlns:xlink="http://www.w3.org/1999/xlink" width="544" height="184" viewBox="0 0 544 184"><defs><clipPath id="a"><rect width="440.446" height="90.813" fill="#e9e600"/></clipPath></defs><g transform="translate(-1258 -178)"><g transform="translate(116.815 5.92)"><g transform="translate(1197.738 216)"><path d="M5.419.065V56.093H20.448V15.129H40.08l6.337,6.338V56.093h15.03V15.238l-.108-.109L46.417.213,46.269.065Z" transform="translate(-2.395 -0.029)" fill="#e9e600"/><path d="M134.39,15.2h25.9v1.5l-3.919,3.918H134.39ZM119.326.133V43.4l12.759,12.764h43.268V41.1h-37.08l-3.9-3.9V35.645H162.6l12.758-12.759V.133Z" transform="translate(-52.736 -0.059)" fill="#e9e600"/><path d="M248.262,15.128h19.632l6.337,6.338V40.958H248.262ZM233.233.065V56.093H289.26V15.238l-.108-.109L274.231.213l-.148-.148Z" transform="translate(-103.078 -0.029)" fill="#e9e600"/><path d="M347.141.065V56.093h15.03V15.129H381.8l6.337,6.338V56.093h15.029V15.238l-.108-.109L388.139.213l-.148-.148Z" transform="translate(-153.419 -0.029)" fill="#e9e600"/><path d="M502.046,0V8.935L476.078,34.909V.036H461.049V56.1h15.09L491.35,40.885l15.144,15.144h10.469V45.239L501.977,30.258l15.1-15.1V0Z" transform="translate(-203.761 0)" fill="#e9e600"/><path d="M615.919.064V30.337H593.938l-3.919-3.918V.064H574.955V32.607l12.759,12.76h28.219V46.92l-3.9,3.9h-37.08V65.883h43.269l12.76-12.759V.064Z" transform="translate(-254.102 -0.028)" fill="#e9e600"/><path d="M703.892,15.128h19.632l6.337,6.338V40.958H703.892ZM688.863.065V56.093h56.028V15.238l-.108-.109L729.861.213l-.147-.148Z" transform="translate(-304.444 -0.029)" fill="#e9e600"/><g clip-path="url(#a)"><path d="M237.423,147.782a18.076,18.076,0,0,1-5.011-2.266l3.238-4.532a10.829,10.829,0,0,0,3.424,1.632,12.588,12.588,0,0,0,3.454.587,4.694,4.694,0,0,0,2.143-.4,1.174,1.174,0,0,0,.756-1.03.946.946,0,0,0-.371-.792,1.632,1.632,0,0,0-1.018-.285q-.4,0-.91.032c-.339.021-.612.042-.817.064a28.045,28.045,0,0,1-3.3.19,8.35,8.35,0,0,1-4.457-1.061,3.77,3.77,0,0,1-1.711-3.47,4.8,4.8,0,0,1,2.559-4.326q2.56-1.538,7.525-1.537a17.73,17.73,0,0,1,4.919.713,13.523,13.523,0,0,1,4.4,2.139l-3.547,3.676a14.824,14.824,0,0,0-3.285-1.347,12.179,12.179,0,0,0-3.068-.4,3.65,3.65,0,0,0-1.85.444q-.772.444-.771,1.014a.838.838,0,0,0,.323.7,1.336,1.336,0,0,0,.848.253q.525,0,1.45-.1,2.251-.157,3.361-.158a9.311,9.311,0,0,1,4.965,1.109,3.733,3.733,0,0,1,1.758,3.391,5.327,5.327,0,0,1-2.59,4.959,14.033,14.033,0,0,1-7.155,1.538,19.512,19.512,0,0,1-5.258-.745" transform="translate(-102.715 -57.714)" fill="#e9e600"/><path d="M286.235,134.067q-2.838-.19-5.181-.285l-.031,3.359a4.377,4.377,0,0,0,.725,2.678,3.025,3.025,0,0,0,2.575.967,7.075,7.075,0,0,0,1.357-.126,22.607,22.607,0,0,0-.123,2.377q0,.57.062,2.6a20.713,20.713,0,0,1-2.282.317q-.926.063-2.405.063-3.609,0-5.1-1.791a7.564,7.564,0,0,1-1.5-4.992l.031-5.357q-1.449.064-3.022.19v-5.61a3.813,3.813,0,0,0,2.714-1.045,4.207,4.207,0,0,0,1.326-2.5h8.389a14.414,14.414,0,0,1-3.485,3.55h5.952Z" transform="translate(-119.919 -55.203)" fill="#e9e600"/><path d="M322.377,139.776q0,4.659.216,8.684-1.975-.095-3.115-.095-1.08,0-3.115.095l-.894-4.659a7.127,7.127,0,0,1-2.22,3.756,5.43,5.43,0,0,1-3.516,1.22,5.977,5.977,0,0,1-3.207-.84,5.383,5.383,0,0,1-2.051-2.266,7.219,7.219,0,0,1-.694-3.2v-4.564q0-4.216-.155-6.751h6.939q-.185,4.659-.185,9.223a3.434,3.434,0,0,0,.663,2.219,2.066,2.066,0,0,0,1.681.824,2.141,2.141,0,0,0,1.681-.872,4.343,4.343,0,0,0,.879-2.393v-.729q.062-2.473.062-3.424,0-2.186-.124-4.849h7.371q-.217,3.994-.216,8.621" transform="translate(-134.188 -57.964)" fill="#e9e600"/><path d="M362.431,130.307q0,6.371.185,12.33h-6.969l.092-3.8a6.314,6.314,0,0,1-2.59,3.122,7.763,7.763,0,0,1-4.01,1,5.963,5.963,0,0,1-3.608-1.173,7.731,7.731,0,0,1-2.5-3.185,10.756,10.756,0,0,1-.895-4.421,11.358,11.358,0,0,1,.895-4.484,8.436,8.436,0,0,1,2.513-3.391,5.769,5.769,0,0,1,3.685-1.284,7.844,7.844,0,0,1,4.117,1.03,6.142,6.142,0,0,1,2.544,3.185q0-1.806-.123-5.8-.123-3.866-.123-5.452h6.969q-.184,5.9-.185,12.329m-7.587,6.45a3.585,3.585,0,0,0,.956-2.773,3.03,3.03,0,0,0-.956-2.473,3.647,3.647,0,0,0-2.405-.792,3.232,3.232,0,0,0-2.329.9,3.124,3.124,0,0,0-.94,2.361,3.917,3.917,0,0,0,.863,2.631,2.916,2.916,0,0,0,2.344,1.014,3.518,3.518,0,0,0,2.467-.872" transform="translate(-151.208 -52.141)" fill="#e9e600"/><path d="M386.46,121.215a3.558,3.558,0,0,1-.94-2.568,3.629,3.629,0,0,1,.94-2.567,4.512,4.512,0,0,1,5.721.016,3.857,3.857,0,0,1,.031,5.118,4.7,4.7,0,0,1-5.752,0m-.694,20.157q.215-5.1.215-8.43,0-3.962-.246-8.875h7.4q-.247,4.724-.247,8.875,0,3.486.216,8.43Z" transform="translate(-170.381 -50.854)" fill="#e9e600"/><path d="M405.91,146.038a8.857,8.857,0,0,1-2.483-6.545,8.68,8.68,0,0,1,2.483-6.434q2.482-2.473,7.756-2.473a13.271,13.271,0,0,1,5.937,1.189,8.009,8.009,0,0,1,3.531,3.2,9,9,0,0,1,1.141,4.516,8.568,8.568,0,0,1-2.637,6.56q-2.637,2.472-7.972,2.472-5.274,0-7.756-2.488m10.871-3.883a3.546,3.546,0,0,0,.987-2.631,3.478,3.478,0,0,0-.987-2.551,4.037,4.037,0,0,0-2.991-1,3.862,3.862,0,0,0-2.93.983,3.594,3.594,0,0,0-.925,2.567,3.679,3.679,0,0,0,.925,2.631,3.86,3.86,0,0,0,2.93.983,4.08,4.08,0,0,0,2.991-.983" transform="translate(-178.295 -57.713)" fill="#e9e600"/><path d="M22.894,130.155l-4.489,3.41V132.2l.1-.07a33.7,33.7,0,0,0,7.663-7.036l-1.922-4.67h-6v-2.409h-6.5v2.409H3.027v6.089H15.882l-.585.427A30.776,30.776,0,0,1,0,132.3a17.765,17.765,0,0,1,1.83,2.952c.491,1.019,1,2.24,1.506,3.632a72.565,72.565,0,0,0,7.995-2.875l.33-.142v6.81h6.743V133.7l.378.28a36.567,36.567,0,0,0,3.953,2.551,42.108,42.108,0,0,0,4.554,2.162,24.734,24.734,0,0,1,2.175-5.872,12.483,12.483,0,0,1-3.434-.89,13.184,13.184,0,0,1-3.137-1.773" transform="translate(0 -52.157)" fill="#e9e600"/><path d="M82.414,119.436H74.992v1.87H57.228v6.564H68.9l-.391.4a24.008,24.008,0,0,1-5.4,4.224,24.728,24.728,0,0,1-6.965,2.429,33.437,33.437,0,0,1,2.036,3.652,26.783,26.783,0,0,1,1.4,3.932,55.57,55.57,0,0,0,9.082-5.432l.227-.169.126.253a12.194,12.194,0,0,1,.944,2.553c.195.8.391,1.753.585,2.831a52.875,52.875,0,0,0,7.629-.409,5.487,5.487,0,0,0,3.343-1.458,5.2,5.2,0,0,0,.9-3.381V127.87H84.6v-6.564h-2.19Zm-7.423,13.931a7.023,7.023,0,0,1-.162,1.741,1.5,1.5,0,0,1-.732.97,3.24,3.24,0,0,1-1.532.282c-.46,0-1.185-.054-2.154-.16l-.556-.061.431-.356a26.758,26.758,0,0,0,4.28-4.334l.009-.012-4.965-3.568h5.38Z" transform="translate(-24.812 -52.785)" fill="#e9e600"/><path d="M133.9,120.045a26.278,26.278,0,0,1-1.866,7.476,10.8,10.8,0,0,1-3.91,4.76,18.916,18.916,0,0,1-6.574,2.586,48.033,48.033,0,0,1-9.144.78,16.122,16.122,0,0,1,1.731,3.279c.425,1.128.862,2.525,1.3,4.155a56.834,56.834,0,0,0,10.365-1.842,24.088,24.088,0,0,0,7.421-3.577,19.243,19.243,0,0,0,5.562-6.2,26.132,26.132,0,0,0,2.736-9.277c-1.646-.4-3.066-.761-4.227-1.077-1.106-.3-2.246-.658-3.392-1.063" transform="translate(-49.679 -53.054)" fill="#e9e600"/><path d="M123.908,130.444l5.232-5.347c-1.962-.83-3.923-1.582-5.834-2.236-1.967-.674-4.237-1.38-6.748-2.1a27.859,27.859,0,0,1-2.148,3.054,37.165,37.165,0,0,1-2.669,3.054c2.587.535,4.647,1.03,6.128,1.469,1.532.456,3.563,1.165,6.04,2.106" transform="translate(-49.384 -53.37)" fill="#e9e600"/><path d="M186.939,118.244h-6.991v.792H169.4v4.915h28.085v-4.915H186.939Z" transform="translate(-74.867 -52.258)" fill="#e9e600"/><path d="M191.761,140.173l-.553-.424h3.7v-9.067H169.659v9.067h3.267l-.554.424a31.174,31.174,0,0,1-2.953,2.029,16.1,16.1,0,0,1-2.646,1.249c.89.666,1.773,1.373,2.633,2.108a28.689,28.689,0,0,1,2.266,2.13,48.119,48.119,0,0,0,4.31-3.532l.243-.23.136.305a8.742,8.742,0,0,1,.555,1.776q.2.959.229,1.085l.143.613a39.169,39.169,0,0,0,5.068-.252,4.209,4.209,0,0,0,2.336-.9,2.767,2.767,0,0,0,.654-2.034v-4.769h4.077l-3.528,2.13a38.892,38.892,0,0,0,3.128,3.078c1.038.909,2.194,1.826,3.437,2.732a28.481,28.481,0,0,1,2.267-2.131c.859-.734,1.743-1.442,2.633-2.108a16.1,16.1,0,0,1-2.647-1.249,30.972,30.972,0,0,1-2.953-2.029m-12.881,1.709v.639a.909.909,0,0,1-.406.891,2.95,2.95,0,0,1-1.311.169h-.585l.421-.406c.289-.279.708-.715,1.244-1.3l-3.534-2.128h4.171v1.96m9.005-6.178h-11.2V134.2h11.2Z" transform="translate(-73.706 -57.755)" fill="#e9e600"/></g></g></g><path d="M0,0H0M0,0V0M0-2H28a2,2,0,0,1,2,2,2,2,0,0,1-2,2H2V28a2,2,0,0,1-2,2,2,2,0,0,1-2-2V0A2,2,0,0,1,0-2Z" transform="translate(1260 180)" fill="#e9e600"/><path d="M0,0H0M0,0V0M0-2H28a2,2,0,0,1,2,2,2,2,0,0,1-2,2H2V28a2,2,0,0,1-2,2,2,2,0,0,1-2-2V0A2,2,0,0,1,0-2Z" transform="translate(1800 360) rotate(180)" fill="#e9e600"/><path d="M0,0H0M0,0V0M0-2H28a2,2,0,0,1,2,2,2,2,0,0,1-2,2H2V28a2,2,0,0,1-2,2,2,2,0,0,1-2-2V0A2,2,0,0,1,0-2Z" transform="translate(1260 360) rotate(-90)" fill="#e9e600"/><path d="M0,0H0M0,0V0M0-2H28a2,2,0,0,1,2,2,2,2,0,0,1-2,2H2V28a2,2,0,0,1-2,2,2,2,0,0,1-2-2V0A2,2,0,0,1,0-2Z" transform="translate(1800 180) rotate(90)" fill="#e9e600"/></g></svg>