<svg xmlns="http://www.w3.org/2000/svg" width="22" height="45" viewBox="0 0 22 45"><g transform="translate(1 0.642)"><text transform="matrix(-1, 0, 0, 1, 20, 0)" fill="#e9e600" font-size="30" font-family="CallingCode-Regular, Calling Code"><tspan x="1.6" y="29">-</tspan></text><g transform="translate(-5397.714 -4644.559)"><g transform="translate(5397.714 4669.559)" fill="none" stroke-linecap="round" stroke-linejoin="round"><path d="M0,5V5ZM0,5H0Z" stroke="none"/><path d="M 5 5 L 0 5 L 5 5 M 0 5 L 0 0 L 0 5 M 5 6 L 0 6 C -0.5522800087928772 6 -1 5.552279949188232 -1 5 L -1 0 C -1 -0.5522800087928772 -0.5522800087928772 -1 0 -1 C 0.5522800087928772 -1 1 -0.5522800087928772 1 0 L 1 4 L 5 4 C 5.552279949188232 4 6 4.447720050811768 6 5 C 6 5.552279949188232 5.552279949188232 6 5 6 Z" stroke="none" fill="#e9e600"/></g><g transform="translate(5417.714 4659.559) rotate(180)" fill="none" stroke-linecap="round" stroke-linejoin="round"><path d="M0,5V5ZM0,5H0Z" stroke="none"/><path d="M 5 5 L 0 5 L 5 5 M 0 5 L 0 0 L 0 5 M 5 6 L 0 6 C -0.5522800087928772 6 -1 5.552279949188232 -1 5 L -1 0 C -1 -0.5522800087928772 -0.5522800087928772 -1 0 -1 C 0.5522800087928772 -1 1 -0.5522800087928772 1 0 L 1 4 L 5 4 C 5.552279949188232 4 6 4.447720050811768 6 5 C 6 5.552279949188232 5.552279949188232 6 5 6 Z" stroke="none" fill="#e9e600"/></g><g transform="translate(5417.714 4674.559) rotate(180)" fill="none" stroke-linecap="round" stroke-linejoin="round"><path d="M0,0V0ZM0,0H0Z" stroke="none"/><path d="M 0 0 L 5 0 L 0 0 M 0 0 L 0 5 L 0 0 M 0 -1 L 5 -1 C 5.552279949188232 -1 6 -0.5522799491882324 6 0 C 6 0.5522799491882324 5.552279949188232 1 5 1 L 1 1 L 1 5 C 1 5.552279949188232 0.5522799491882324 6 0 6 C -0.5522799491882324 6 -1 5.552279949188232 -1 5 L -1 0 C -1 -0.5522799491882324 -0.5522799491882324 -1 0 -1 Z" stroke="none" fill="#e9e600"/></g><g transform="translate(5397.714 4654.559)" fill="none" stroke-linecap="round" stroke-linejoin="round"><path d="M0,0V0ZM0,0H0Z" stroke="none"/><path d="M 0 0 L 5 0 L 0 0 M 0 0 L 0 5 L 0 0 M 0 -1 L 5 -1 C 5.552279949188232 -1 6 -0.5522799491882324 6 0 C 6 0.5522799491882324 5.552279949188232 1 5 1 L 1 1 L 1 5 C 1 5.552279949188232 0.5522799491882324 6 0 6 C -0.5522799491882324 6 -1 5.552279949188232 -1 5 L -1 0 C -1 -0.5522799491882324 -0.5522799491882324 -1 0 -1 Z" stroke="none" fill="#e9e600"/></g></g></g></svg>