<svg xmlns="http://www.w3.org/2000/svg" xmlns:xlink="http://www.w3.org/1999/xlink" width="170" height="94" viewBox="0 0 170 94"><defs><filter id="a" x="0" y="0" width="170" height="94" filterUnits="userSpaceOnUse"><feOffset dy="3" input="SourceAlpha"/><feGaussianBlur stdDeviation="3" result="b"/><feFlood flood-opacity="0.161"/><feComposite operator="in" in2="b"/><feComposite in="SourceGraphic"/></filter><clipPath id="c"><rect width="91.833" height="37" fill="none"/></clipPath></defs><g transform="translate(-67 -53)"><g transform="matrix(1, 0, 0, 1, 67, 53)" filter="url(#a)"><path d="M45,0H152a0,0,0,0,1,0,0V31a45,45,0,0,1-45,45H0a0,0,0,0,1,0,0V45A45,45,0,0,1,45,0Z" transform="translate(9 6)" fill="red"/></g><g transform="translate(106.083 78)"><path d="M111.5.5l18.268,18.268L111.5,37.035h21.459l18.268-18.268L132.964.5Z" transform="translate(-59.727 -0.268)" fill="#fff"/><g transform="translate(0 0)"><g clip-path="url(#c)"><path d="M132.964.5H111.5l18.268,18.268L111.5,37.036h21.459l18.268-18.268Z" transform="translate(-59.727 -0.268)" fill="none"/></g></g><path d="M56.356.5,74.624,18.768,56.356,37.035H77.815L96.083,18.768,77.815.5Z" transform="translate(-30.187 -0.268)" fill="#fff"/><g transform="translate(0 0)"><g clip-path="url(#c)"><path d="M77.815.5H56.356L74.624,18.768,56.356,37.036H77.815L96.083,18.768Z" transform="translate(-30.187 -0.268)" fill="none"/></g></g><path d="M1.207.5,19.475,18.768,1.207,37.035H22.666L40.934,18.768,22.666.5Z" transform="translate(-0.646 -0.268)" fill="#fff"/><g transform="translate(0 0)"><g clip-path="url(#c)"><path d="M22.666.5H1.207L19.475,18.768,1.207,37.036H22.666L40.934,18.768Z" transform="translate(-0.647 -0.268)" fill="none"/></g></g></g></g></svg>