<svg xmlns="http://www.w3.org/2000/svg" xmlns:xlink="http://www.w3.org/1999/xlink" width="306" height="271" viewBox="0 0 306 271"><defs><clipPath id="a"><rect width="216.678" height="192.765" transform="translate(0 0)" fill="#e9e600" stroke="#e9e600" stroke-width="2"/></clipPath></defs><g transform="translate(-717 -2491)"><path d="M0,0H0M0,0V0M0-3H28a3,3,0,0,1,3,3,3,3,0,0,1-3,3H3V28a3,3,0,0,1-3,3,3,3,0,0,1-3-3V0A3,3,0,0,1,0-3Z" transform="translate(1020 2759) rotate(180)" fill="#e9e600"/><path d="M0,0H0M0,0V0M0-3H28a3,3,0,0,1,3,3,3,3,0,0,1-3,3H3V28a3,3,0,0,1-3,3,3,3,0,0,1-3-3V0A3,3,0,0,1,0-3Z" transform="translate(720 2494)" fill="#e9e600"/><path d="M0,0H0M0,0V0M0-3H28a3,3,0,0,1,3,3,3,3,0,0,1-3,3H3V28a3,3,0,0,1-3,3,3,3,0,0,1-3-3V0A3,3,0,0,1,0-3Z" transform="translate(720 2759) rotate(-90)" fill="#e9e600"/><path d="M0,0H0M0,0V0M0-3H28a3,3,0,0,1,3,3,3,3,0,0,1-3,3H3V28a3,3,0,0,1-3,3,3,3,0,0,1-3-3V0A3,3,0,0,1,0-3Z" transform="translate(1020 2494) rotate(90)" fill="#e9e600"/><g transform="translate(772.569 2534.875)"><g transform="translate(-11 -9)" clip-path="url(#a)"><path d="M91.057,45.982v34.5c0,13.268-.149,26.536.033,39.8.207,15.188-.263,30.373-.037,45.558.037,2.511.014,2.479,2.532,2.332a74.909,74.909,0,0,0,23.274-5.2c1.605-.634,2.369-.321,2.919,1.309,1.873,5.542,2.269,4.208-2.756,6.025a82.662,82.662,0,0,1-24.178,4.837q-40.258,1.974-68.39-26.848A84.267,84.267,0,0,1,.852,99.549C-2.126,77.3,2.7,56.705,15.443,38.2,28.914,18.628,47.479,6.481,70.746,1.7a84.333,84.333,0,0,1,33.816.016,115.043,115.043,0,0,1,15.4,4.4c1.538.536,1.906,1.181,1.293,2.754-1.771,4.541-1.691,4.515-6.2,2.868A77.4,77.4,0,0,0,92.646,7.131c-1.722-.1-1.6.867-1.6,1.969q.01,18.441.009,36.882M65.15,91.172v.051c-1.454,0-2.908.016-4.361,0-4.159-.051-8.32-.147-12.48-.163-2.8-.012-2.982.177-2.9,2.877.068,2.176.231,4.347.387,6.519a130.07,130.07,0,0,0,3.9,23.165,1.807,1.807,0,0,0,2.062,1.6q15.257-.133,30.517-.177c1.34,0,1.875-.55,1.873-1.9q-.031-15.16.021-30.324c0-1.272-.468-1.691-1.782-1.675-5.747.072-11.495.033-17.242.033m-.513-7.017c5.682,0,11.365-.063,17.044.035,1.9.03,2.514-.6,2.5-2.507-.072-9.447-.023-18.894-.019-28.344,0-2.956,0-2.94-2.984-2.97-9.71-.093-19.423.235-29.129-.172a2.142,2.142,0,0,0-2.463,1.955,141.668,141.668,0,0,0-4.217,29.516c-.061,1.882.471,2.558,2.421,2.521,5.615-.107,11.232-.037,16.849-.033M22.821,91.074v.158c-4.622,0-9.247-.012-13.869.009-.972,0-2-.147-1.878,1.5a85.431,85.431,0,0,0,6.866,27.894c1.34,3.115,2.679,4.874,6.686,4.583,6.759-.489,13.587-.058,20.385.009,1.363.014,1.889-.324,1.51-1.873a141.026,141.026,0,0,1-4.086-30.515c-.033-1.419-.643-1.8-1.95-1.787-4.555.049-9.109.019-13.664.019m19.84-40.256a4.714,4.714,0,0,0-2.612-.44c-7.2-.014-14.407.044-21.608-.047A3.309,3.309,0,0,0,15,52.6a81.334,81.334,0,0,0-7.84,29.471c-.114,1.647.249,2.1,1.82,2.094q13.58-.059,27.16.012c1.673.009,2.281-.489,2.323-2.258a125.265,125.265,0,0,1,2.23-21.026c.648-3.348,1.309-6.7,1.971-10.076M52.5,43.181c.6.047.985.1,1.368.1,6.407.007,12.811-.016,19.216,0,3.807.012,10.085,1.813,11.106-2.6,1.2-5.209-.044-12.261-.042-17.638q0-4.669,0-9.34c0-1.288.739-5.188-.44-6.164C68,8.773,56.239,29.785,52.5,43.181m.049,88.9a6.268,6.268,0,0,0,.154,1.074c4.678,12.562,15.22,34.266,31.235,34.86,1.081-2.339.256-6.908.252-9.461q-.007-4.438-.014-8.874-.007-4.994,0-9.985c0-1.582.8-5.689-.366-6.929-2.188-2.33-12.506-.676-15.574-.678q-7.842,0-15.684-.007m-32.3.016c10.95,15.828,25.087,26.743,43.172,32.423a75.694,75.694,0,0,1-7.183-8.963A92.736,92.736,0,0,1,45.69,134.1c-.356-1.013-.62-2.018-2.041-2.013-7.651.023-15.3.012-23.4.012m.037-88.812h1.6c6.542,0,13.082,0,19.623.035,3.9.023,3.8-1.256,5.221-4.9a99,99,0,0,1,16.3-27.232c-17.962,5.6-31.917,16.422-42.741,32.1" transform="translate(10.695 8.75)" fill="#e9e600"/><path d="M87.754,176.266a93.473,93.473,0,0,1-18.021-1.71,84.067,84.067,0,0,1-16.7-5.128A85.465,85.465,0,0,1,37.693,160.9a97.821,97.821,0,0,1-13.954-11.906A85.293,85.293,0,0,1-.139,99.682,94.249,94.249,0,0,1-.915,83.135,83.994,83.994,0,0,1,6.457,52.051a92.569,92.569,0,0,1,8.162-14.423A93.99,93.99,0,0,1,25.791,24.2,84.455,84.455,0,0,1,53.808,5.743,96.175,96.175,0,0,1,70.545.725,84.417,84.417,0,0,1,87.487-1,88.23,88.23,0,0,1,104.759.741a114.236,114.236,0,0,1,15.536,4.438,3.267,3.267,0,0,1,2.042,1.536,3.219,3.219,0,0,1-.147,2.524l-.069.178a18.533,18.533,0,0,1-1.355,3.038,2.511,2.511,0,0,1-2.213,1.3,12.227,12.227,0,0,1-3.7-1.023l-.14-.051A76.772,76.772,0,0,0,92.59,8.129c-.06,0-.117-.005-.171-.005a1.3,1.3,0,0,0-.34.034,4.071,4.071,0,0,0-.033.726c0,.071,0,.143,0,.215,0,7.032,0,14.183.006,21.1q0,7.892,0,15.784v34.5c0,4.054-.015,8.176-.029,12.161-.032,9.056-.064,18.421.062,27.624.1,7.5.039,15.123-.023,22.493-.063,7.561-.129,15.38-.014,23.064v.066c.008.52.016,1.054.055,1.329.057,0,.133.007.234.007h0c.273,0,.631-.021,1.083-.047l.1-.006a74.239,74.239,0,0,0,22.965-5.136,4.516,4.516,0,0,1,1.655-.376c1.805,0,2.388,1.728,2.579,2.3.247.732.465,1.332.657,1.861.6,1.661.9,2.495.5,3.307-.385.778-1.182,1.029-2.5,1.443-.54.17-1.212.381-2.021.673a84.006,84.006,0,0,1-24.469,4.895C91.173,176.223,89.444,176.266,87.754,176.266ZM87.487,1A82.413,82.413,0,0,0,70.948,2.684C47.886,7.418,29.488,19.557,16.267,38.763,3.745,56.954-1.108,77.361,1.843,99.417A83.334,83.334,0,0,0,25.17,147.594c17.271,17.7,38.327,26.673,62.583,26.672,1.658,0,3.354-.042,5.041-.125a82.007,82.007,0,0,0,23.887-4.778c.849-.307,1.543-.525,2.1-.7a11.271,11.271,0,0,0,1.274-.446,13.73,13.73,0,0,0-.556-1.715c-.186-.512-.417-1.15-.671-1.9-.315-.935-.546-.935-.684-.935a2.767,2.767,0,0,0-.92.236,76.235,76.235,0,0,1-23.583,5.273l-.1.006c-.485.028-.869.051-1.2.051h0a2.02,2.02,0,0,1-2.006-1,5.733,5.733,0,0,1-.283-2.307v-.066c-.115-7.707-.049-15.538.014-23.11.062-7.359.125-14.969.023-22.449-.126-9.221-.094-18.594-.062-27.659.014-3.984.028-8.1.029-12.154v-34.5q0-7.892,0-15.784c0-6.915,0-14.065-.006-21.1,0-.068,0-.135,0-.2a2.837,2.837,0,0,1,.6-2.158,2.367,2.367,0,0,1,1.771-.617c.09,0,.185,0,.282.008A78.769,78.769,0,0,1,115.4,10.8l.14.051a12.648,12.648,0,0,0,3.011.9c.165,0,.284,0,.531-.384a18.346,18.346,0,0,0,1.174-2.684l.069-.178c.278-.713.211-.925.194-.961s-.135-.224-.885-.485A112.356,112.356,0,0,0,104.366,2.7,86.225,86.225,0,0,0,87.487,1ZM84.568,169.04l-.665-.025c-7.353-.273-14.3-4.763-20.636-13.347-5.41-7.325-9.239-16.1-11.5-22.163a3,3,0,0,1-.154-.81c-.013-.136-.028-.29-.054-.48l-.153-1.133h1.144q5.22,0,10.44,0l5.245,0h.006c.7,0,1.857-.1,3.195-.206,1.948-.161,4.373-.361,6.579-.361,3.45,0,5.523.5,6.523,1.561,1.182,1.257.937,3.96.74,6.132-.053.582-.1,1.133-.1,1.483,0,2.886,0,5.965,0,9.982q0,2.951.009,5.9,0,1.485.005,2.97c0,.673.065,1.528.133,2.432.193,2.59.413,5.526-.477,7.45ZM53.745,133.082c2.227,5.935,5.939,14.369,11.131,21.4,5.744,7.778,11.923,11.977,18.374,12.494a20.632,20.632,0,0,0,.08-5.839c-.07-.942-.137-1.832-.138-2.578q0-1.485-.005-2.97-.005-2.953-.009-5.9c-.006-4.019-.006-7.1,0-9.987,0-.439.052-1.005.111-1.66a25.251,25.251,0,0,0,.152-2.914c-.038-1.235-.283-1.589-.357-1.668-.326-.348-1.418-.93-5.065-.93-2.124,0-4.5.2-6.414.355-1.382.114-2.575.213-3.359.213h-.007l-5.245,0ZM66.72,166.6l-3.6-1.129a83.342,83.342,0,0,1-12.992-5.3,78.807,78.807,0,0,1-11.574-7.262,82.476,82.476,0,0,1-10.213-9.184,94.614,94.614,0,0,1-8.917-11.062L18.344,131.1h1.908l11.871,0c4.665,0,8.219,0,11.523-.015h.013a2.635,2.635,0,0,1,2.13.924,4.9,4.9,0,0,1,.786,1.59l.058.167A91.4,91.4,0,0,0,57.069,155a74.2,74.2,0,0,0,7.089,8.844ZM22.181,133.1c10.137,14.078,22.608,23.689,37.993,29.269a72.923,72.923,0,0,1-4.76-6.247,93.359,93.359,0,0,1-10.667-21.688l-.061-.176c-.36-1.038-.475-1.17-1.027-1.17h-.007c-3.307.01-6.863.015-11.53.015ZM19.8,126.252a6.3,6.3,0,0,1-4.4-1.477,10.371,10.371,0,0,1-2.385-3.742,89.72,89.72,0,0,1-4.667-13.816,85.234,85.234,0,0,1-2.278-14.4,2.439,2.439,0,0,1,.533-1.932,2.5,2.5,0,0,1,1.926-.643l.368,0h.044c1.915-.009,3.943-.013,6.576-.013q3.149,0,6.3,0v-.158h1c1.261,0,2.542,0,3.781,0s2.518,0,3.777,0c2.389,0,4.326-.009,6.095-.028h.078a3.063,3.063,0,0,1,2.063.621,2.78,2.78,0,0,1,.819,2.143,140.642,140.642,0,0,0,4.058,30.3,2.709,2.709,0,0,1-.249,2.336,2.6,2.6,0,0,1-2.154.777H41c-1.932-.019-3.895-.068-5.793-.116-2.433-.061-4.949-.124-7.414-.124-2.656,0-4.977.075-7.1.228C20.39,126.241,20.088,126.252,19.8,126.252ZM8.084,92.266a1.545,1.545,0,0,0-.012.406,84.972,84.972,0,0,0,6.787,27.571c1.192,2.772,2.189,4.009,4.944,4.009.237,0,.49-.01.751-.029,2.168-.157,4.536-.233,7.241-.233,2.489,0,5.018.063,7.464.125,1.891.047,3.846.1,5.763.115h.068a2.743,2.743,0,0,0,.552-.041,2.562,2.562,0,0,0-.091-.594,142.642,142.642,0,0,1-4.115-30.73c-.01-.455-.094-.647-.142-.69-.023-.02-.166-.121-.74-.121H36.5c-1.776.019-3.72.028-6.116.028-1.261,0-2.542,0-3.781,0l-2.777,0v.158h-1q-3.648,0-7.3,0c-2.63,0-4.655,0-6.566.013H8.9l-.368,0A2.561,2.561,0,0,0,8.084,92.266Zm43.642,33.952a2.778,2.778,0,0,1-2.992-2.35A130.076,130.076,0,0,1,44.8,100.526l-.032-.444c-.144-2-.293-4.068-.357-6.116-.047-1.515-.028-2.484.638-3.171s1.683-.738,3.052-.738h.212c2.676.011,5.394.054,8.023.1,1.464.024,2.978.048,4.466.066.471.006.971.009,1.573.009q.692,0,1.384,0h.392v-.053h1c1.5,0,3.033,0,4.511.005s3.005.005,4.507.005c3.292,0,5.824-.013,8.212-.043h.085a2.811,2.811,0,0,1,2.046.673,2.743,2.743,0,0,1,.664,2c-.033,11.822-.039,21.456-.021,30.32a2.925,2.925,0,0,1-.72,2.161,2.876,2.876,0,0,1-2.149.745c-11.307.039-21.287.1-30.512.177Zm-5.239-34.03A6.857,6.857,0,0,0,46.41,93.9c.062,2.007.21,4.055.353,6.035l.032.443a128.1,128.1,0,0,0,3.875,22.986c.2.767.389.851,1.056.851h.03c9.227-.08,19.211-.138,30.522-.177.545,0,.7-.113.73-.147s.147-.193.146-.755c-.018-8.867-.012-18.5.021-30.328a1.274,1.274,0,0,0-.08-.586,1.362,1.362,0,0,0-.63-.087h-.06c-2.4.03-4.936.044-8.237.044-1.5,0-3.033,0-4.511-.005l-3.507-.005v.051h-1q-.692,0-1.384,0t-1.392,0c-.611,0-1.119,0-1.6-.009-1.491-.018-3.007-.043-4.473-.066-2.623-.042-5.334-.086-8-.1h-.2A5.216,5.216,0,0,0,46.487,92.188Zm35.322-7h-.143c-2.168-.037-4.531-.055-7.44-.055-1.6,0-3.22.005-4.791.01s-3.2.01-4.8.01c-1.514,0-3.052-.007-4.539-.013-1.672-.007-3.4-.013-5.1-.013-2.793,0-5.078.019-7.191.059l-.168,0a3.413,3.413,0,0,1-2.513-.824,3.659,3.659,0,0,1-.758-2.73,135.169,135.169,0,0,1,1.34-14.982c.7-4.813,1.676-9.773,2.906-14.742a3.75,3.75,0,0,1,1.055-1.974,3.1,3.1,0,0,1,2.186-.745c.076,0,.156,0,.235.005,3.443.145,7.09.209,11.825.209,2.214,0,4.467-.014,6.646-.028s4.438-.028,6.659-.028c1.436,0,2.734.006,3.966.018h.049c1.683.017,2.611.026,3.267.69s.658,1.594.658,3.28c0,2.53-.006,5.1-.01,7.588-.012,6.8-.024,13.834.029,20.748a3.664,3.664,0,0,1-.819,2.692A3.512,3.512,0,0,1,81.81,85.19Zm-7.584-2.056c2.921,0,5.3.017,7.473.055h.11c.745,0,1.026-.126,1.131-.232s.247-.427.24-1.267c-.053-6.924-.041-13.962-.029-20.767,0-2.486.009-5.057.01-7.585a10.07,10.07,0,0,0-.088-1.864,9.9,9.9,0,0,0-1.858-.106h-.049c-1.226-.012-2.517-.017-3.947-.017-2.215,0-4.468.014-6.647.028s-4.438.028-6.658.028c-4.764,0-8.437-.065-11.909-.211-.052,0-.1,0-.151,0-.739,0-1.046.181-1.3,1.2A139.624,139.624,0,0,0,46.368,81.7c-.029.9.11,1.186.2,1.274s.322.216,1.076.216h.13c2.126-.041,4.423-.059,7.229-.059,1.7,0,3.434.007,5.108.013,1.486.006,3.022.012,4.532.013,1.6,0,3.22-.005,4.79-.01S72.627,83.134,74.226,83.134ZM36.184,85.178h-.051c-4.478-.028-9.213-.042-14.075-.042-4.179,0-8.456.01-13.076.03H8.954a2.894,2.894,0,0,1-2.224-.718A3.12,3.12,0,0,1,6.161,82a80.917,80.917,0,0,1,2.558-15.3,85.948,85.948,0,0,1,5.376-14.534,4.281,4.281,0,0,1,4.262-2.841h.1c3.667.046,7.3.052,10.046.052q2.248,0,4.5,0,3.527,0,7.055,0c.1,0,.206,0,.311,0s.239,0,.365,0a4.8,4.8,0,0,1,2.407.568l.65.349-.142.724q-.312,1.6-.624,3.182c-.444,2.261-.9,4.6-1.346,6.892a124.823,124.823,0,0,0-2.212,20.859,3.2,3.2,0,0,1-.847,2.484A3.4,3.4,0,0,1,36.184,85.178ZM22.058,83.136c4.865,0,9.6.014,14.086.042h.039c.734,0,.97-.121,1.044-.193s.215-.319.233-1.089A126.827,126.827,0,0,1,39.709,60.7c.444-2.3.9-4.635,1.347-6.9l.464-2.364a3.489,3.489,0,0,0-.792-.074c-.107,0-.213,0-.326,0s-.232,0-.352,0q-3.532-.007-7.051,0-2.249,0-4.5,0c-2.757,0-6.393-.006-10.072-.052h-.072c-1.264,0-1.838.4-2.455,1.7A80.825,80.825,0,0,0,8.156,82.141a2.433,2.433,0,0,0,.039.939,2.02,2.02,0,0,0,.759.086h.021C13.6,83.146,17.876,83.136,22.058,83.136ZM79.029,44.657c-1.1,0-2.229-.1-3.321-.2-.953-.087-1.853-.169-2.625-.171-1.564,0-3.262-.006-5.191-.006q-2.845,0-5.691,0-4.165,0-8.332,0c-.294,0-.573-.027-.9-.057-.161-.015-.343-.033-.547-.048l-1.213-.094.327-1.172A71.356,71.356,0,0,1,62.822,20.2a42.553,42.553,0,0,1,9.341-9.269,23.2,23.2,0,0,1,11.473-4.38l.4-.032.312.258c1.211,1,1.118,3.207.885,5.77-.042.468-.083.91-.083,1.165q0,2.335,0,4.671t0,4.669c0,1.73.13,3.629.268,5.64.29,4.217.591,8.578-.252,12.224a4.322,4.322,0,0,1-2.412,3.07A8.463,8.463,0,0,1,79.029,44.657Zm-11.138-2.38c1.931,0,3.631,0,5.2.006.86,0,1.8.089,2.8.179,1.048.1,2.131.194,3.14.194,3.234,0,3.924-1.056,4.188-2.2.776-3.355.486-7.565.205-11.636-.141-2.046-.274-3.979-.273-5.778q0-2.334,0-4.67t0-4.669c0-.345.042-.809.091-1.346a21.626,21.626,0,0,0,.13-2.677,4.156,4.156,0,0,0-.157-1.091c-8.183.912-14.722,7.432-18.8,12.81a69.581,69.581,0,0,0-10.61,20.879h.065q4.169,0,8.329,0Q65.045,42.279,67.891,42.278ZM41.614,44.321H41.5c-5.449-.033-10.99-.034-16.348-.034H18.383l1.083-1.568a93.82,93.82,0,0,1,8.813-10.959,81.328,81.328,0,0,1,10.1-9.1,77.474,77.474,0,0,1,11.462-7.191,81.954,81.954,0,0,1,12.892-5.237l3.182-.992L63.8,11.82A98.09,98.09,0,0,0,47.663,38.783c-.178.455-.335.884-.474,1.262a7.71,7.71,0,0,1-1.7,3.193C44.648,44.007,43.527,44.321,41.614,44.321Zm-19.4-2.035h2.94c5.361,0,10.9,0,16.36.034h.1c2.607,0,2.753-.4,3.7-2.967.142-.387.3-.825.488-1.3A97.743,97.743,0,0,1,60.143,13.2C44.775,18.672,32.329,28.221,22.216,42.286Z" transform="translate(10.695 8.75)" fill="#e9e600"/><path d="M122.265,39.264a10.578,10.578,0,0,1,10.016,13.492,11.125,11.125,0,0,1-6.5,6.917c-3.25,1.2-6.717-.944-9.575.582-7.39,3.944-9.7,14.393-19.046,14.5-8.671.1-17.555-.678-26.2-.04-3.989.294-4.014,2.532-6.91,4.816a10.554,10.554,0,1,1,.492-16.229c2.537,2.258,2.353,4.2,5.9,4.585,4.468.478,9.277-.03,13.778-.03,4.128,0,11.131,1.321,14.787-.592,3.786-1.978,7.285-7.017,10.344-10.018,1.913-1.875,2.539-2.421,2.558-4.946.016-1.827-.426-3.348.044-5.2a10.637,10.637,0,0,1,7.271-7.518,14,14,0,0,1,3.031-.322m3.513,10.512A3.747,3.747,0,0,0,122.3,46.12a3.614,3.614,0,1,0,3.481,3.655M61.158,71.312a3.551,3.551,0,1,0-6.2,2.285,3.584,3.584,0,0,0,6.2-2.285" transform="translate(73.25 60.96)" fill="#e9e600"/><path d="M57.537,82.771a11.3,11.3,0,0,1-7.946-3.256,11.94,11.94,0,0,1-2.808-4.348,11.32,11.32,0,0,1,5.3-14.078,11.907,11.907,0,0,1,5.558-1.379,11.355,11.355,0,0,1,7.566,2.85,14.493,14.493,0,0,1,2.014,2.267,3.953,3.953,0,0,0,3.332,2.07,40.169,40.169,0,0,0,4.263.2c1.563,0,3.172-.06,4.728-.118s3.14-.117,4.68-.117c1.153,0,2.5.1,3.928.2,1.629.119,3.314.242,4.939.242a12.167,12.167,0,0,0,5.456-.923c2.439-1.274,4.9-4.072,7.067-6.541,1.059-1.2,2.059-2.342,3.04-3.305l.151-.148c1.732-1.7,2.092-2.05,2.107-4.092.005-.577-.039-1.119-.085-1.693a10.824,10.824,0,0,1,.16-3.748,11.461,11.461,0,0,1,2.894-5.16,11.812,11.812,0,0,1,5.058-3.07,9.621,9.621,0,0,1,2.4-.315c.272-.013.554-.026.851-.047l.083,0a11.153,11.153,0,0,1,5.242,1.324,11.922,11.922,0,0,1,3.954,3.442,11.72,11.72,0,0,1,2.065,4.7,10.813,10.813,0,0,1-.305,5.324,12.079,12.079,0,0,1-2.7,4.571,11.568,11.568,0,0,1-4.4,2.984,7.719,7.719,0,0,1-2.708.444,20.752,20.752,0,0,1-2.493-.2,18.234,18.234,0,0,0-2.134-.176,4.353,4.353,0,0,0-2.116.456c-2.792,1.49-4.894,4.068-6.928,6.56-3.2,3.928-6.517,7.99-12.577,8.062-.533.006-1.092.01-1.66.01-2.8,0-5.652-.077-8.414-.151s-5.615-.151-8.407-.151c-2.865,0-5.368.082-7.654.251-2.236.165-2.908.953-4.022,2.259a15.768,15.768,0,0,1-2.343,2.345A11.565,11.565,0,0,1,57.537,82.771Zm.109-21.061a9.593,9.593,0,0,0-8.2,4.463,9.368,9.368,0,0,0-.789,8.3A9.557,9.557,0,0,0,54.8,80.361a9.244,9.244,0,0,0,2.741.41,9.556,9.556,0,0,0,5.9-2.02A13.9,13.9,0,0,0,65.5,76.679a6.793,6.793,0,0,1,5.4-2.956c2.335-.172,4.887-.256,7.8-.256,2.819,0,5.687.077,8.461.152,2.749.074,5.592.151,8.36.151.56,0,1.111,0,1.636-.009,5.125-.061,8-3.59,11.051-7.327,2.158-2.646,4.39-5.382,7.536-7.061a6.261,6.261,0,0,1,3.058-.691,19.985,19.985,0,0,1,2.373.19,19.25,19.25,0,0,0,2.254.183,5.687,5.687,0,0,0,2.016-.32,10.1,10.1,0,0,0,5.887-6.279,9.179,9.179,0,0,0-1.463-8.242,9.5,9.5,0,0,0-7.564-3.95c-.306.021-.588.034-.861.047a7.929,7.929,0,0,0-1.915.232,9.664,9.664,0,0,0-6.591,6.806,8.974,8.974,0,0,0-.105,3.1c.048.592.1,1.205.092,1.87-.021,2.872-.863,3.7-2.708,5.5l-.15.147c-.928.911-1.9,2.021-2.938,3.2-2.285,2.6-4.874,5.546-7.643,6.993A13.78,13.78,0,0,1,93.1,69.307h0c-1.7,0-3.42-.126-5.085-.247-1.39-.1-2.7-.2-3.783-.2-1.5,0-3.079.059-4.6.116-1.574.059-3.2.119-4.8.119a42.131,42.131,0,0,1-4.477-.21,5.873,5.873,0,0,1-4.715-2.855,12.442,12.442,0,0,0-1.747-1.977A9.357,9.357,0,0,0,57.646,61.71Zm-.1,14.029h0A4.533,4.533,0,0,1,53.4,69.4a4.523,4.523,0,0,1,4.2-2.721c.068,0,.137,0,.2,0a4.528,4.528,0,0,1-.255,9.052Zm.05-7.056a2.55,2.55,0,0,0-2.369,1.526,2.533,2.533,0,0,0,2.319,3.529,2.556,2.556,0,0,0,2.611-2.452,2.494,2.494,0,0,0-2.438-2.6ZM122.019,54.25h0a4.41,4.41,0,0,1-4.024-6.288,4.836,4.836,0,0,1,1.57-2,4.3,4.3,0,0,1,2.782-.838,4.748,4.748,0,0,1,4.431,4.683,4.434,4.434,0,0,1-1.552,3.246A4.962,4.962,0,0,1,122.019,54.25Zm.106-7.134a2.541,2.541,0,0,0-2.291,1.632,2.5,2.5,0,0,0,.4,2.743,2.42,2.42,0,0,0,1.79.758,2.706,2.706,0,0,0,2.76-2.5,2.759,2.759,0,0,0-2.53-2.627C122.207,47.117,122.166,47.116,122.125,47.116Z" transform="translate(73.25 60.96)" fill="#e9e600"/><path d="M83.268,43c-3.509,0-9.757-1.312-12.653.967-3.432,2.7-4.51,6.06-9.741,5.939a10.674,10.674,0,0,1-8.851-16.04c4.126-6.8,12.876-6.213,17.627-.643,3.043,3.565,5.3,2.889,9.995,2.875,4.345-.012,10.158,1.232,13.878-1.179,3.786-2.453,5.605-5.638,5.279-9.925-.263-3.429.182-6.169,2.824-8.681a10.7,10.7,0,0,1,17.895,5.512,10.622,10.622,0,0,1-3.322,9.755c-2.97,2.735-5.666,2.386-9.268,2.407-4.627.03-6.521,4.778-9.92,7.411C93.4,44.19,87.653,43,83.268,43Zm29.541-19.178a3.79,3.79,0,0,0-3.646-3.674,3.648,3.648,0,0,0-2.621,6.088,3.7,3.7,0,0,0,6.267-2.414M60.972,42.89a3.913,3.913,0,0,0,3.8-3.6c.014-3.057-4.049-4.65-6.137-2.612-2.181,2.132-.811,6.178,2.337,6.211" transform="translate(77.885 26.474)" fill="#e9e600"/><path d="M61.147,50.906c-.1,0-.2,0-.3,0a11.338,11.338,0,0,1-5.875-1.792,11.907,11.907,0,0,1-3.982-4.292A11.493,11.493,0,0,1,55.379,29.23,10.906,10.906,0,0,1,60.627,27.9a12.465,12.465,0,0,1,5.284,1.212,13.605,13.605,0,0,1,4.5,3.455,6.344,6.344,0,0,0,5.79,2.584c.471,0,.979-.013,1.517-.027.6-.015,1.23-.031,1.924-.033h.064c1.093,0,2.239.073,3.453.15,1.238.079,2.518.16,3.758.16,2.737,0,4.664-.422,6.062-1.329,3.583-2.322,5.117-5.185,4.826-9.01-.242-3.148-.03-6.476,3.132-9.481a11.722,11.722,0,0,1,8.106-3.256,11.9,11.9,0,0,1,7.23,2.445,11.356,11.356,0,0,1,4.228,6.849,11.044,11.044,0,0,1-.432,5.827,12.018,12.018,0,0,1-3.193,4.862c-2.687,2.474-5.246,2.676-8.073,2.676l-.737,0c-.367,0-.743,0-1.13,0-2.656.017-4.279,1.878-6.16,4.031a23.069,23.069,0,0,1-3.154,3.17c-2.37,1.834-5.411,2.069-7.8,2.069-1.183,0-2.369-.067-3.516-.132C85.235,44.062,84.218,44,83.268,44h-1v-.034c-.657-.031-1.366-.087-2.1-.144-1.3-.1-2.642-.205-3.951-.205-2.387,0-4.016.369-4.981,1.128a22.992,22.992,0,0,0-2.406,2.279,15.309,15.309,0,0,1-3.035,2.663A8.534,8.534,0,0,1,61.147,50.906Zm-.52-21a8.832,8.832,0,0,0-7.749,4.478,9.386,9.386,0,0,0-.13,9.476A9.493,9.493,0,0,0,60.9,48.9l.25,0c3.12,0,4.426-1.367,6.235-3.259A24.577,24.577,0,0,1,70,43.179c1.35-1.062,3.326-1.557,6.218-1.557,1.387,0,2.832.112,4.106.211,1.088.085,2.115.164,2.947.164h1v.024c.7.022,1.412.062,2.156.1,1.119.063,2.277.128,3.4.128,3.07,0,5.1-.509,6.572-1.651a21.586,21.586,0,0,0,2.871-2.9c2.014-2.307,4.1-4.693,7.654-4.716.4,0,.779,0,1.153,0l.726,0c2.568,0,4.554-.154,6.718-2.147a9.682,9.682,0,0,0,3.02-8.82,9.566,9.566,0,0,0-9.5-7.692,9.73,9.73,0,0,0-6.727,2.706C99.9,19.33,99.564,21.844,99.8,24.914a11.051,11.051,0,0,1-1.215,6.2,12.883,12.883,0,0,1-4.517,4.638c-2.282,1.479-5.174,1.65-7.15,1.65-1.3,0-2.616-.084-3.885-.164-1.181-.075-2.3-.146-3.326-.146h-.058c-.67,0-1.285.018-1.879.033-.551.014-1.071.027-1.568.027a8.279,8.279,0,0,1-7.312-3.285A11.078,11.078,0,0,0,60.627,29.9ZM61,43.891h-.04a4.36,4.36,0,0,1-4.036-2.818,4.671,4.671,0,0,1,1.01-5.108,4.288,4.288,0,0,1,3.023-1.2A5.093,5.093,0,0,1,64.5,36.229,4.3,4.3,0,0,1,65.772,39.3a4.553,4.553,0,0,1-1.479,3.21A4.852,4.852,0,0,1,61,43.891Zm-.043-7.125a2.287,2.287,0,0,0-1.625.629,2.694,2.694,0,0,0-.552,2.932,2.363,2.363,0,0,0,2.2,1.564H61a2.925,2.925,0,0,0,2.769-2.6,2.289,2.289,0,0,0-.691-1.646A3.052,3.052,0,0,0,60.959,36.766ZM109.035,28.3a4.356,4.356,0,0,1-3.225-1.385,4.648,4.648,0,0,1,3.352-7.769h.005a4.66,4.66,0,0,1,3.277,1.436,4.6,4.6,0,0,1,1.365,3.255A4.36,4.36,0,0,1,112.26,27.1,5.012,5.012,0,0,1,109.035,28.3Zm.132-8.153,0,1a2.508,2.508,0,0,0-2.334,1.578,2.59,2.59,0,0,0,.444,2.828,2.35,2.35,0,0,0,1.76.747h0a2.688,2.688,0,0,0,2.774-2.5,2.592,2.592,0,0,0-.792-1.819,2.653,2.653,0,0,0-1.851-.838Z" transform="translate(77.885 26.474)" fill="#e9e600"/><path d="M58.069,35.048c-3.777,0-18.466,2.824-15-5.223,1.538-3.567,10.3-1.729,13.745-1.731,3.544,0,8.958.946,12.348-.079,2.991-.906,5.866-5.121,8.019-7.252,1.2-1.19,3.534-2.637,3.916-4.317.324-1.419-.755-3.217-.848-4.636a10.237,10.237,0,0,1,3.311-8.131C94.783-6.965,109.4,12.957,95.99,20.5c-3.038,1.708-5.09.592-8.205.972-3.28.4-5.461,3.935-7.651,6.127-2.409,2.411-5.282,6.63-8.755,7.409-3.916.874-9.3.037-13.31.037M90.813,7.685a3.583,3.583,0,1,0,2.465,6.174,3.609,3.609,0,0,0-2.465-6.174" transform="translate(67.269 9.568)" fill="#e9e600"/><path d="M49.868,36.528c-4.168,0-6.624-.782-7.729-2.462-.8-1.209-.79-2.769.015-4.637a4.3,4.3,0,0,1,2.886-2.319,13.916,13.916,0,0,1,4.065-.487c1.638,0,3.337.15,4.836.282,1.151.1,2.145.189,2.869.189h.02c1.127,0,2.407.09,3.763.186,1.467.1,2.985.211,4.422.211a13.664,13.664,0,0,0,3.86-.434c1.917-.581,4.007-2.976,5.686-4.9.678-.777,1.318-1.51,1.919-2.105.354-.351.775-.7,1.221-1.076.989-.826,2.219-1.855,2.423-2.753a5.13,5.13,0,0,0-.391-2.266,9.247,9.247,0,0,1-.48-2.083,10.791,10.791,0,0,1,.811-4.881,11.778,11.778,0,0,1,2.809-4.041,10.546,10.546,0,0,1,14.934-.461,13.452,13.452,0,0,1,4.164,6.654,10.559,10.559,0,0,1-.324,6.629,11.225,11.225,0,0,1-5.169,5.6,8.369,8.369,0,0,1-4.371,1.114c-.474,0-.948-.025-1.406-.049s-.945-.05-1.434-.05a11.181,11.181,0,0,0-1.364.078c-2.128.26-3.821,2.2-5.459,4.079-.548.628-1.066,1.222-1.605,1.762s-1.138,1.213-1.758,1.913c-2.12,2.391-4.523,5.1-7.486,5.765a21.565,21.565,0,0,1-4.654.422c-1.588,0-3.218-.1-4.794-.191-1.46-.087-2.839-.169-4.081-.169-.6,0-1.536.08-2.625.172C53.828,36.357,51.817,36.528,49.868,36.528Zm-.763-7.906c-2.937,0-4.658.538-5.115,1.6-.522,1.211-.583,2.135-.181,2.746.469.712,1.9,1.562,6.058,1.561,1.864,0,3.828-.167,5.407-.3,1.134-.1,2.114-.179,2.794-.179,1.3,0,2.709.084,4.2.173,1.547.092,3.146.188,4.675.188a19.645,19.645,0,0,0,4.217-.374c2.331-.522,4.507-2.975,6.426-5.14.641-.723,1.246-1.405,1.84-2,.492-.492.988-1.061,1.513-1.663,1.8-2.061,3.835-4.4,6.724-4.75a13.157,13.157,0,0,1,1.606-.093c.542,0,1.049.027,1.54.053.452.024.879.046,1.3.046a6.413,6.413,0,0,0,3.39-.857c3.962-2.229,5.616-5.866,4.539-9.979-1.2-4.582-5.277-8.036-9.483-8.036a9.085,9.085,0,0,0-6.3,2.787,9.2,9.2,0,0,0-3,7.34,7.794,7.794,0,0,0,.393,1.618,6.5,6.5,0,0,1,.432,3.306c-.354,1.555-1.808,2.77-3.091,3.843-.413.345-.8.671-1.1.962-.549.544-1.166,1.251-1.819,2-1.944,2.228-4.147,4.753-6.614,5.5a15.55,15.55,0,0,1-4.44.519c-1.508,0-3.061-.11-4.563-.216-1.319-.093-2.565-.181-3.622-.181h-.02c-.813,0-1.847-.091-3.045-.2C52.308,28.768,50.656,28.622,49.105,28.622ZM90.867,15.835h0A4.725,4.725,0,0,1,87.5,14.413a4.557,4.557,0,0,1,5.965-6.848,4.681,4.681,0,0,1,1.572,2.063,4.521,4.521,0,0,1-4.173,6.207Zm-.1-7.15a2.627,2.627,0,0,0-2.541,2.478,2.5,2.5,0,0,0,.712,1.855,2.714,2.714,0,0,0,1.932.818h0a2.451,2.451,0,0,0,1.721-.7,2.513,2.513,0,0,0,.59-2.777A2.575,2.575,0,0,0,90.8,8.685Z" transform="translate(67.269 9.568)" fill="#e9e600"/><path d="M57.6,61.122c4.061,0,9.119-.787,13.079-.028,3.728.713,5.787,3.874,8.417,6.5,2.733,2.728,3.592,4.275,7.264,4.475,3.075.168,5.277.207,7.807,2.29,11.295,9.3-4.725,26.019-14.421,15.313a10.6,10.6,0,0,1-2.756-7.523c.158-3.248,1.568-4.83-.678-7.614-1.687-2.087-4.576-5.515-7.148-6.344-3.283-1.058-8.4-.107-11.819-.107-4.2,0-17.638,2.91-15.155-4.939.7-2.211.221-1.628,2.593-2.025,3.989-.671,8.788,0,12.816,0m33.443,21.41a3.586,3.586,0,0,0-3.555-3.683,3.653,3.653,0,0,0-2.628,6.057,3.58,3.58,0,0,0,6.183-2.374" transform="translate(66.396 89.549)" fill="#e9e600"/><path d="M86.979,94.132a10.65,10.65,0,0,1-7.972-3.788A11.555,11.555,0,0,1,75.994,82.1a18.351,18.351,0,0,1,.346-2.588c.328-1.756.509-2.723-.8-4.349-1.155-1.43-4.226-5.23-6.676-6.02a12.506,12.506,0,0,0-3.755-.451c-1.358,0-2.787.106-4.17.208-1.288.1-2.5.185-3.587.185h-.005c-.721,0-1.765.094-2.975.2-1.686.152-3.6.324-5.468.324-3.8,0-6.113-.732-7.264-2.3a4.8,4.8,0,0,1-.4-4.463c.081-.255.145-.47.2-.66a2.863,2.863,0,0,1,.678-1.413,2.269,2.269,0,0,1,1.448-.494c.272-.03.61-.068,1.054-.142a26.459,26.459,0,0,1,4.372-.312c1.508,0,3.046.079,4.534.155,1.434.074,2.789.143,4.075.144,1.308,0,2.715-.083,4.2-.171,1.556-.092,3.165-.187,4.732-.187a23.1,23.1,0,0,1,4.33.348c3.257.623,5.332,2.889,7.338,5.081.517.565,1.052,1.149,1.6,1.693.424.423.81.825,1.151,1.18,1.883,1.961,2.743,2.856,5.461,3l.352.019c2.989.16,5.35.286,8.036,2.5a11.238,11.238,0,0,1,3.929,5.885,10.524,10.524,0,0,1-.348,6.193,13.288,13.288,0,0,1-4.433,5.982A11.657,11.657,0,0,1,86.979,94.132ZM65.105,66.693a14.4,14.4,0,0,1,4.369.548c2.675.863,5.477,4.016,7.619,6.667,1.891,2.344,1.562,4.107,1.213,5.973a16.473,16.473,0,0,0-.314,2.318,9.541,9.541,0,0,0,2.5,6.8,8.706,8.706,0,0,0,6.49,3.131c3.969,0,8.063-3.071,9.525-7.142,1.3-3.636.222-7.229-2.97-9.858-2.178-1.793-4.046-1.893-6.872-2.044l-.354-.019c-3.505-.191-4.814-1.554-6.795-3.616-.35-.365-.712-.741-1.121-1.15-.577-.576-1.128-1.177-1.66-1.758-1.868-2.041-3.633-3.969-6.239-4.467a21.167,21.167,0,0,0-3.954-.313c-1.507,0-3.086.093-4.614.184s-2.956.175-4.324.175c-1.338,0-2.717-.071-4.177-.146s-2.975-.152-4.431-.152a24.518,24.518,0,0,0-4.042.285c-.5.083-.883.126-1.163.157-.1.011-.2.023-.291.034-.041.121-.091.29-.14.455-.056.188-.126.422-.211.693a2.93,2.93,0,0,0,.1,2.678c.722.986,2.623,1.486,5.65,1.486,1.781,0,3.645-.168,5.289-.316,1.257-.113,2.343-.211,3.154-.211h.006c1.009,0,2.189-.087,3.439-.179C62.207,66.8,63.674,66.693,65.105,66.693ZM87.438,87.036h0a4.5,4.5,0,0,1-3.3-1.446,4.592,4.592,0,0,1-.775-4.982,4.429,4.429,0,0,1,4.081-2.76H87.5a4.586,4.586,0,0,1,4.541,4.7,4.488,4.488,0,0,1-1.465,3.269A4.72,4.72,0,0,1,87.438,87.036Zm0-7.188A2.426,2.426,0,0,0,85.194,81.4a2.6,2.6,0,0,0,.4,2.818,2.481,2.481,0,0,0,1.847.815,2.576,2.576,0,0,0,2.608-2.523,2.586,2.586,0,0,0-2.569-2.664Z" transform="translate(66.396 89.549)" fill="#e9e600"/><path d="M54.292,32.483c5.717.317,6.794,6.048,11.364,7.155,5.829,1.412,13.566-2.23,18.852,1.1,2.751,1.733,5.286,5.333,7.611,7.658,1.978,1.978,6.5,5.044,7.667,7.6.857,1.875.093,3.569-2.157,4.711-2.169,1.1-2.341.6-4.208-1.17-3.828-3.625-8.655-11.236-13.729-12.9-2.854-.939-6.989-.077-9.978-.089-2.47-.009-4.788-.492-6.705,1.121-1.983,1.666-2.621,3.821-5.24,4.967a10.57,10.57,0,0,1-7.315.45,10.728,10.728,0,0,1-7.306-12.2c.843-4.809,5.289-8.417,11.143-8.4m-.734,6.978a3.594,3.594,0,1,0,2.453,6.062,3.592,3.592,0,0,0-2.453-6.062" transform="translate(67.847 51.943)" fill="#e9e600"/><path d="M95.9,62.289c-1.069,0-1.746-.654-2.683-1.558-.153-.148-.311-.3-.486-.466a57.642,57.642,0,0,1-3.911-4.316c-2.912-3.423-6.214-7.3-9.443-8.365a10.014,10.014,0,0,0-3.087-.389c-1.105,0-2.275.092-3.406.181-1.1.087-2.146.169-3.112.169h-.064c-.481,0-.951-.021-1.406-.039s-.89-.036-1.312-.036a4.792,4.792,0,0,0-3.339.961,12.4,12.4,0,0,0-1.736,1.905,9.392,9.392,0,0,1-3.746,3.213,11.566,11.566,0,0,1-8,.491,11.717,11.717,0,0,1-8-13.334,10.718,10.718,0,0,1,4.049-6.614,12.966,12.966,0,0,1,8.029-2.609l.106,0c3.562.2,5.537,2.277,7.279,4.111,1.292,1.36,2.512,2.645,4.266,3.07a12.775,12.775,0,0,0,3.014.313,44.561,44.561,0,0,0,4.669-.34,47.107,47.107,0,0,1,4.937-.354,11.809,11.809,0,0,1,6.53,1.6,27.5,27.5,0,0,1,5.473,5.255c.809.927,1.573,1.8,2.313,2.542.584.584,1.438,1.3,2.343,2.056,2.168,1.814,4.625,3.871,5.527,5.839,1.09,2.385.113,4.635-2.614,6.019A4.945,4.945,0,0,1,95.9,62.289ZM76.294,45.2a11.921,11.921,0,0,1,3.711.489c3.764,1.237,7.259,5.345,10.342,8.969,1.343,1.579,2.612,3.07,3.762,4.16.182.173.352.336.5.48.7.673,1.044,1,1.294,1a4.16,4.16,0,0,0,1.273-.473,3.733,3.733,0,0,0,1.787-1.6,2.076,2.076,0,0,0-.086-1.8c-.713-1.557-3.085-3.542-4.991-5.138-.939-.786-1.826-1.528-2.473-2.175-.788-.788-1.573-1.688-2.405-2.642a26.182,26.182,0,0,0-5.032-4.877,9.928,9.928,0,0,0-5.465-1.3,45.641,45.641,0,0,0-4.724.343,46.715,46.715,0,0,1-4.881.351,14.727,14.727,0,0,1-3.484-.369c-2.327-.563-3.81-2.126-5.245-3.636-1.625-1.711-3.161-3.328-5.913-3.49h-.021c-5.169,0-9.326,3.113-10.107,7.569a9.717,9.717,0,0,0,6.609,11.073,9.566,9.566,0,0,0,6.626-.408,7.562,7.562,0,0,0,2.98-2.621,14.153,14.153,0,0,1,2.018-2.2,6.773,6.773,0,0,1,4.626-1.43c.462,0,.935.019,1.392.037.437.018.889.036,1.334.037h.057c.888,0,1.892-.079,2.955-.163C73.9,45.29,75.11,45.2,76.294,45.2ZM53.568,47.539h0a4.946,4.946,0,0,1-3.479-1.432,4.329,4.329,0,0,1-1.278-3.083,4.472,4.472,0,0,1,1.4-3.244,4.775,4.775,0,0,1,3.321-1.319h.034A4.391,4.391,0,0,1,57.612,41.2a4.628,4.628,0,0,1-.878,5.011A4.33,4.33,0,0,1,53.568,47.539Zm-.037-7.079a2.655,2.655,0,0,0-2.722,2.567,2.315,2.315,0,0,0,.694,1.666,2.973,2.973,0,0,0,2.064.845h0a2.33,2.33,0,0,0,1.721-.707,2.606,2.606,0,0,0,.482-2.85,2.387,2.387,0,0,0-2.22-1.521Z" transform="translate(67.847 51.943)" fill="#e9e600"/></g></g></g></svg>