<svg xmlns="http://www.w3.org/2000/svg" xmlns:xlink="http://www.w3.org/1999/xlink" width="306" height="271" viewBox="0 0 306 271"><defs><clipPath id="a"><rect width="164.217" height="187.816" fill="#e9e600"/></clipPath></defs><g transform="translate(-117 -2491)"><g transform="translate(173 2706.366) rotate(-90)"><g transform="translate(2 3)" clip-path="url(#a)"><path d="M161.087,136.727a.81.81,0,0,0-.235.238.81.81,0,0,1,.235-.238l-.329-.479a13.5,13.5,0,0,0-3.653-3.655l-.488-.329c-.026-.31-.5-.123-.505-.458-.591-.2-1.043-.74-1.727-.716l-.489-.306c-1.913-1.116-4.082-1.188-6.189-1.507a16.887,16.887,0,0,0-5.936.837c-.27.1-.572.146-.752.412a13.272,13.272,0,0,0-5.973,3.735q-1.208,1.5-2.415,3.006-.264.479-.53.957a18.026,18.026,0,0,1-1.163,2.769,1.222,1.222,0,0,1-.42.176q-6.5,0-13-.013a4.713,4.713,0,0,0-1.919-.2c-1.606-5.915-2.918-12.052-4.978-17.827h0q-.361-1.6-.72-3.2a16.081,16.081,0,0,1-.813-3.7l-.426-.562q-14.937.027-29.874.052c-5.554,0-11.11-.025-16.665-.039l-6.453.016c-.612.329-.487,1.026-.761,1.524l.083-.028-.242.756c-.1.251.078.608-.288.757-.016.158-.031.316-.047.474q-.828,2.977-1.657,5.953a10.383,10.383,0,0,1-.77,2.712,53.6,53.6,0,0,1-1.487,5.7.47.47,0,0,1-.045.239q-.862,3.214-1.723,6.428c.153.381-.32.6-.252.956-.184.4-.554.294-.862.293q-5.745-.01-11.49-.04l-2.466-.011.027.084c-.774.072-.58-.764-.978-1.043a2.684,2.684,0,0,0-.543-1.228c.044-.45-.265-.761-.469-1.1A19.6,19.6,0,0,0,26.016,132l-.745-.513a19.172,19.172,0,0,0-8.163-1.961,16.569,16.569,0,0,0-9.885,2.993,19.158,19.158,0,0,0-4.747,4.963c-.138.279-.278.558-.414.838a16.751,16.751,0,0,0-1.98,6.335v1.24L0,146.136l.015.989a15.054,15.054,0,0,0,.535,3.7l1.512,3.947.231.253a25.921,25.921,0,0,0,2.381,3.233c.529.49.816,1.229,1.551,1.508l1.18.754a14.264,14.264,0,0,0,6.484,2.631,1.632,1.632,0,0,0,1.488.244,14.676,14.676,0,0,0,5.689-.485c.4.188.62-.321.989-.245a18.744,18.744,0,0,0,5.436-2.7c.255-.507.847-.606,1.2-.991.416-.5.658-1.154,1.268-1.493l.245-.256a6.284,6.284,0,0,1,1.2-1.716,1.016,1.016,0,0,1,.448-.757l1.308-2.942c.31-.42.76-.224,1.144-.233,1.523-.033,3.048-.032,4.571-.043H53.72c2.309.065,2.626.038,3.208-2.242.626-2.46,1.366-4.893,1.944-7.365q.148-.729.294-1.46.47-1.5.942-2.993.276-1.233.553-2.466a58.4,58.4,0,0,0,1.679-5.943l.248-1.237.722-1.773H77v5.712c.328.243.21.6.211.91q.01,10.176,0,20.353c0,.348.148.749-.209,1.033-.027.159-.054.318-.08.478.2.521-6.067,4.026-6.9,4.843a15.325,15.325,0,0,0-4.64,9.255c-.135.486-.448.942-.251,1.484a17.539,17.539,0,0,0,3.183,11.353,24.431,24.431,0,0,0,4.7,4.449l3.2,1.546.477.02.28.231-.027-.085a11.772,11.772,0,0,0,3.49.75l-.023.083,1.493-.083a14.03,14.03,0,0,0,3.448-.244l.262-.252c.527.259.958-.41,1.485-.156l.258-.268.979-.233c.179-.288.645-.156.769-.526l.466-.074c1.345-.191,2.083-1.385,3.208-1.941.488-.749,1.338-1.094,1.927-1.731.041-.511.438-.724.8-.963.206-.367.264-.839.732-1.019a20.671,20.671,0,0,0,2.536-6.4,11.564,11.564,0,0,0,.153-2.975v-.251a10.56,10.56,0,0,0-.466-4.294,15.846,15.846,0,0,0-9.042-10.894c-.817-.369-2.055-.344-2.29-1.615l-.078-1q.043-1.6.088-3.207-.015-10.525-.032-21.051c0-.9-.033-1.8-.05-2.7.091-.31-.043-.8.555-.711l4.939.007-.025-.074h4.709l.992,0h.247c3.544.127,3.241,2.693,4.076,5.816q1.442,5.4,2.9,10.792c-.065.158.014.232.157.267.577,2.3,1.051,4.674,1.734,6.949.8,2.652,2.452,1.926,4.983,1.9l13.607,0c3.2.043,4.718-.613,5.921,2.511q.74,1.238,1.48,2.476l.278.464c1.082.814,1.8,2.015,2.956,2.754l.24.271a12.978,12.978,0,0,0,4.462,2.384l.234.1a4.427,4.427,0,0,0,2.488.655,1.635,1.635,0,0,0,1.488.241c1.912.038,3.843.3,5.685-.485.47.2.813-.209,1.232-.258a21.424,21.424,0,0,0,4.455-2.184l3.433-2.972.516-.757a16.958,16.958,0,0,0,.282-20.018m-.324,1.968a4.331,4.331,0,0,1-.1-1,4.331,4.331,0,0,0,.1,1m-18.154,2.689a7.251,7.251,0,0,1,8.41-.433c7.551,4.705-.606,16.192-8.014,10.9-.231-.112-.408-.355-.711-.286-1.388-3.419-3.105-7.143.315-10.184M80.181,177.755c-.546-.116-1.155-.089-1.5-.666-.518.083-.689-.6-1.2-.542l-.51-.758c-.195-.644-1.1-.858-1.013-1.672a2.931,2.931,0,0,1-.528-1.747,6.306,6.306,0,0,1,1.253-4.975,4.549,4.549,0,0,1,2.5-2.174c.859-.047,1.591-.635,2.474-.581l.742.087a6.128,6.128,0,0,1,5.714,3.66,5.865,5.865,0,0,1,.758,2.483v.494a6.7,6.7,0,0,1-5.973,6.73l-1.241.238c-.39-.463-1.1-.09-1.485-.577m-65.3-37.837c1.638.153,3.312-.211,4.923.342l1.993,1.453a6.619,6.619,0,0,1,1.539,2.688c.415.963.074,1.989.244,2.972-.785,5.061-7.214,7.747-11.14,4.087a6.93,6.93,0,0,1,1.7-11.291c.339.186.494-.172.745-.251M38.4,150.466a1.26,1.26,0,0,0-.151-.075,1.26,1.26,0,0,1,.151.075m.361.4a1.175,1.175,0,0,1,.112.472,1.175,1.175,0,0,0-.112-.472" transform="translate(0 -0.657)" fill="#e9e600"/><path d="M0,42.585c.254.64-.255,1.386.271,1.99h0c-.047,1.416.763,2.605,1.037,3.937l.7,1.026a.305.305,0,0,1-.032.221l.274.253c.012.147.023.294.035.441l2.729,3.5q.612.524,1.221,1.049l-.026-.088,1.008.777q.239.14.479.278c.315.607,1.051.587,1.493,1a7.23,7.23,0,0,1,1.757.938.3.3,0,0,0,.223-.032l.742.332.742.246c.262-.011.441.346.742.164.526-.106.941.46,1.485.248h.494a25.415,25.415,0,0,0,5.194-.165l.5-.329c.4.188.619-.322.989-.245a13.815,13.815,0,0,0,3.628-1.365,22.592,22.592,0,0,0,4.762-4.333,21.705,21.705,0,0,0,2.5-4.9c.146-.5.708-.187.981-.457h.747L38.128,47h6.686l2.222.077h.989c1.034.393.852,1.411,1.095,2.19.433,1.387.788,2.8,1.176,4.2-.063.159.021.228.162.262l.015.48q.14.61.279,1.221,1.491,5.371,2.982,10.743c.241.873.46,1.753.689,2.63a25.149,25.149,0,0,0,1.013,3.725l1.246-.057h4.2q8.261.021,16.522.042,11.9.024,23.8.042l4.2-.085,1.484-.007,1.253.073a1.83,1.83,0,0,0,.776-1.5l1.894-6.929,0-.249a8.761,8.761,0,0,0,.755-2.473l.543-2.218c.373-.145.192-.5.282-.75q.449-1.608.9-3.216.121-.5.241-.989.783-2.6,1.565-5.194.136-.617.269-1.237c.061-.731.571-.8,1.142-.777.081-.277.333-.214.527-.266l3.463.014c3.163.012,6.326.016,9.489.044.375,0,.839-.219,1.1.276a16.259,16.259,0,0,0,5.479,7.9c.265.511.807.656,1.244.942l1.5.976,2.95,1.32c.608-.166,1.115.384,1.72.243.068.283.331.175.5.252l3.221-.083,1.237.077c1.337-.282,2.8-.088,3.957-1.055,1.59-.252,2.779-1.355,4.193-1.982,2.228-2.931,4.824-4.555,6.124-8.26,1.44-4.1,1.084-7.865-.19-11.955l-1.011-2c-.5-.426-.6-1.167-1.189-1.524a.3.3,0,0,1,.029-.227l-.263-.251a.5.5,0,0,1-.029-.227c-.7-.408-.979-1.181-1.519-1.727l-.7-.447-1.723-1.322-1.987-1.253a22.107,22.107,0,0,0-3.463-1.258c-1.1.054-2.084-.716-3.215-.475h-1.98a20.554,20.554,0,0,0-3.462.5l-.258.252-.979.336c-.941-.014-1.55.835-2.445.942a17.621,17.621,0,0,0-6.9,7.179l-.761,2.039a.421.421,0,0,1-.229.462c-.342.364-.779.166-1.164.168q-10.933.048-21.865.068a2.866,2.866,0,0,0-.266.525q-1.345,4.914-2.675,9.833c-1.078,4.251-2.343,8.452-3.329,12.727-.527,2.286-.618,2.265-3.153,2.4h-9.4l-1.705-.1c-.512-.171-.165-.638-.323-.933l.088-3.946q0-11.393-.009-22.787l-.072-.474c1.4-1.981,4.357-2.667,6.308-4.358a15.005,15.005,0,0,0,4.642-7.251h0a11.3,11.3,0,0,0,.924-4.96c-.062-1.074.346-2.185-.247-3.218.263-1.027-.327-1.852-.651-2.74l-.1-.475a19.182,19.182,0,0,0-3.675-5.907L92.807,3.725l-.991-.744a10.749,10.749,0,0,0-3.473-2c-.245.08-.316-.189-.494-.247-1.429-.04-2.733-.884-4.2-.652H81.417L81.169,0C73.23.562,67.295,5.63,65.3,13.4a1.688,1.688,0,0,1-.248,1.482v3.468a2.221,2.221,0,0,1,.247,1.729c.019.427.419.762.294,1.223l1.67,3.976c-.02.449.439.617.573.976l.689,1a14.945,14.945,0,0,0,2.995,3.011c.906.347,1.5,1.219,2.472,1.456.026.145.079.253.258.178l.98.582a.37.37,0,0,1,.5.209,1.733,1.733,0,0,1,1.287.72c.411.887.022,1.843.239,2.747a2.371,2.371,0,0,0,1.622-2.285,2.371,2.371,0,0,1-1.622,2.285c0,.248,0,.494,0,.742q-.019,8.8-.039,17.592c0,.409-.032.817-.049,1.226q.007,2.225.016,4.45c-.4.571-.1,1.25-.315,2h-9.8L64.1,62.083c-.321-.048-.732.313-.949-.209q-.37-1.359-.742-2.718-.121-.373-.243-.746-.373-1.481-.747-2.964-.255-.622-.512-1.245l.036-.247q-.169-.614-.338-1.229c.025-.083.05-.165.076-.248-.358-.338-.266-.849-.479-1.242l-1.835-7.152c-.358-.344-.152-.874-.41-1.253l-.248-.992c-.075-.174.018-.436-.264-.5a1.324,1.324,0,0,0-.312-.981,4.786,4.786,0,0,0-.654-3.222c-.029-.147-.057-.294-.086-.441l-1.2,0-.248,0L35.4,36.708l-.03-.062.054-.041h-1c-.8.164-1.449.084-1.522-.935q-.849-1.609-1.7-3.22a18.788,18.788,0,0,0-7.938-6.632.339.339,0,0,1-.222-.1l-2.969-.749c-.788.287-1.5-.2-2.267-.229A16.569,16.569,0,0,0,5.827,28.96,17.558,17.558,0,0,0,.047,39.251a1.292,1.292,0,0,0,.036.366Q.041,40.358,0,41.1v1.485M23.589,40.6l-.009,1.735a6.413,6.413,0,0,1-7.967,6.087c-3.146-.68-5.23-3.079-5.473-7.077v-.5a10.84,10.84,0,0,1,1.783-3.929l.248-.248L13.893,35.6a6.188,6.188,0,0,1,2.226-.48H17.85c3,.286,5.044,2.236,5.739,5.48M141.3,38.139a9.417,9.417,0,0,1,3.217-2.717.392.392,0,0,0,.223-.061,8.562,8.562,0,0,1,2.226-.238H148.2c5.994.723,8.12,9.281,2.6,12.342-6.289,3.485-11.564-2.751-9.81-8.838l.312-.487m-58.892-28c4.577.391,6.941,3.765,6.379,8.081A6.333,6.333,0,0,1,82.651,23.5l-1.725-.012a4,4,0,0,1-2.987-1.4,3.787,3.787,0,0,1-1.488-1.726,6.36,6.36,0,0,1,.752-8.236,3.438,3.438,0,0,1,2.236-1.4,5.289,5.289,0,0,1,2.226-.587Z" fill="#e9e600"/><path d="M152.911,110.082a10.622,10.622,0,0,0,3.971-2l.469-.312a16.7,16.7,0,0,0,2.762-2.419l1.937-2.722.214-.258c1.357-3.209,2.288-6.458,1.795-10.036a16.074,16.074,0,0,0-5.2-10.246l-.247-.247a14.534,14.534,0,0,0-5.51-3.488c-2.713-1.125-5.551-.908-8.369-.989a7.377,7.377,0,0,0-2.074.491,16.209,16.209,0,0,0-7.3,4.008l-1,1.006-1.213,1.47a4.267,4.267,0,0,1-1.012,1.747c-.381.225-.078.788-.493.994l-.491,1.5-.242.267L129.9,88.8c-1.132.506-2.312.134-3.469.192l-23.062.042-21.459.041a1.725,1.725,0,0,0-.245-.035q-22.195,0-44.39.01c-.3,0-.669-.144-.9.211l-1.953.061a1.379,1.379,0,0,1-1.579-.985A19.325,19.325,0,0,0,30.7,84.109a20.088,20.088,0,0,0-4.936-4.522,16.794,16.794,0,0,0-4.453-1.729l-.494-.248a60.329,60.329,0,0,0-6.926-.248,1.688,1.688,0,0,1-.989.345l-.494.23c-1.985.178-3.533,1.343-5.169,2.3A12.248,12.248,0,0,0,6,81.18l-.51.456a34.594,34.594,0,0,0-3.459,4.214,2.74,2.74,0,0,1-.541,1.2l-.5,1.241a26.115,26.115,0,0,0-.987,3.955L.05,96.182c.578.218,1.756,5.518,2.367,6.592,1.37,2.405,3.27,3.977,5.319,5.785l3.185,1.544c.163-.045.219.059.256.186l.716.072c.313.194.582.514,1.017.368l2.715.521c.83-.018,1.692.274,2.473-.248l.494.083a8.779,8.779,0,0,0,4.21-1.018,3.414,3.414,0,0,0,1.737-.726c1.152-.193,1.884-1.184,2.944-1.55q1.608-1.715,3.215-3.429l2.208-3.964c.194-.3-.152-.748.262-.993.162-.347.5-.195.76-.267,15.974.107,32.022-.479,47.985.078q11.5-.021,23-.041,11.067-.01,22.133.011c.464,0,.986-.2,1.4.213l.467.064.992-.083c.888-.069,1.309.257,1.586,1.2a13.329,13.329,0,0,0,2.41,4.266q.984,1.114,1.968,2.229l.477.476a28.394,28.394,0,0,0,5.679,3.038l.725.008c.105.27.311.2.512.15l1.234.32c.343.016.735-.2,1,.2l.736-.022h2.225l.5-.154,1.47-.082a3.388,3.388,0,0,1,1.754-.428l-.029-.089a1.36,1.36,0,0,0,.769-.416M12.216,98.979c-3.728-3.672-1.83-9.787,2.923-11.4L18.1,87.5a7.1,7.1,0,0,1,5.483,5.486q0,1.238.007,2.477c-.919,5.28-7.608,7.226-11.371,3.518M145.5,100.894a7.549,7.549,0,0,1-4.222-3.4c-1.472-2.953-1.2-7.484,3.015-9.431l.939-.318,1.485-.239h.742c.6-.094,1.121.413,1.732.226.336.356.838.318,1.237.525,2.385,1.96,4.016,3.942,3.422,7.234-.561,3.115-2.842,4.958-5.892,5.463l-2.457-.058" transform="translate(0 -0.439)" fill="#e9e600"/></g></g><path d="M0,0H0M0,0V0M0-3H28a3,3,0,0,1,3,3,3,3,0,0,1-3,3H3V28a3,3,0,0,1-3,3,3,3,0,0,1-3-3V0A3,3,0,0,1,0-3Z" transform="translate(420 2759) rotate(180)" fill="#e9e600"/><path d="M0,0H0M0,0V0M0-3H28a3,3,0,0,1,3,3,3,3,0,0,1-3,3H3V28a3,3,0,0,1-3,3,3,3,0,0,1-3-3V0A3,3,0,0,1,0-3Z" transform="translate(120 2494)" fill="#e9e600"/><path d="M0,0H0M0,0V0M0-3H28a3,3,0,0,1,3,3,3,3,0,0,1-3,3H3V28a3,3,0,0,1-3,3,3,3,0,0,1-3-3V0A3,3,0,0,1,0-3Z" transform="translate(120 2759) rotate(-90)" fill="#e9e600"/><path d="M0,0H0M0,0V0M0-3H28a3,3,0,0,1,3,3,3,3,0,0,1-3,3H3V28a3,3,0,0,1-3,3,3,3,0,0,1-3-3V0A3,3,0,0,1,0-3Z" transform="translate(420 2494) rotate(90)" fill="#e9e600"/></g></svg>