<svg xmlns="http://www.w3.org/2000/svg" xmlns:xlink="http://www.w3.org/1999/xlink" width="306" height="271" viewBox="0 0 306 271"><defs><clipPath id="a"><rect width="185.927" height="184.643" fill="#e9e600" stroke="#000" stroke-width="4"/></clipPath></defs><g transform="translate(-1317 -2491)"><g transform="translate(1378.073 2531.997)"><g clip-path="url(#a)"><path d="M178.776,98.875h1.43c2.1-1.528,5.035-2.326,5.006-5.718l.715-1.429c-.95-.12-.656-.863-.715-1.429-.2-3.134-2.2-4.472-5.006-5l-1.43-.715H157.529v-14.3h22.677c2.1-1.528,5.035-2.326,5.006-5.718l.715-1.429c-.95-.12-.656-.863-.715-1.429-.2-3.134-2.2-4.472-5.006-5l-1.43-.715H157.322c.079-4.968.814-13.983-2.86-17.869q-.009-.687-.021-1.373a33.535,33.535,0,0,0-5.689-5.916l-2.157-.573c-4.191-3.722-12.758-2.859-17.878-2.859V5.96c-.951-.121-.656-.863-.715-1.429-.425-2.048-1.2-3.742-2.891-4.53h-7.566c-1.394,1.248-2.966,2.361-3.13,4.53V27.177h-14.3c0-5.9,1.989-17.251-.716-22.647-.425-2.048-1.2-3.742-2.89-4.53H88.938c-1.39,1.249-2.947,2.373-3.125,4.53V27.177H71.51c0-5.9,1.989-17.251-.715-22.647A5.175,5.175,0,0,0,67.48,0H60.36c-1.4,1.245-3.048,2.31-3.152,4.53V27.309c-6.089.2-12.189-.2-17.878,2.236-.724.168-1.219.984-2.09.736a25.642,25.642,0,0,0-5.754,5.751l-.737,1.375C27.266,42.48,28.6,50.2,28.6,55.991H6.436a.644.644,0,0,1-.716.715c-3.5-.157-4.832,2.172-5.72,5v2.859a7.424,7.424,0,0,0,5.72,5.718H28.4v14.3H6.436a.644.644,0,0,1-.716.715c-3.5-.157-4.832,2.172-5.72,5v2.859a7.422,7.422,0,0,0,5.72,5.718H28.4v14.3H6.436a.644.644,0,0,1-.716.715c-3.5-.157-4.832,2.172-5.72,5v2.859a7.442,7.442,0,0,0,5.72,5.719H28.347c1.156,6.6-1.731,13.588,3.117,19.3a2.586,2.586,0,0,0,.022.66,25.623,25.623,0,0,0,5.754,5.751c.684.282,1.218.989,2.09.736,4.082,3.766,12.888,2.144,17.878,2.144v22.873a7.408,7.408,0,0,0,5.721,5.718H65.79c2.132-1.5,4.891-2.453,5.006-5.718.059-.567-.236-1.309.715-1.43V156.259h14.3v22.667a7.408,7.408,0,0,0,5.72,5.718h2.861c2.132-1.5,4.891-2.453,5.006-5.718.059-.567-.236-1.309.716-1.43V156.259h14.3v22.667a7.409,7.409,0,0,0,5.721,5.718H123c2.132-1.5,4.891-2.453,5.006-5.718a.645.645,0,0,1,.715-.716V156.282c6.383-1.02,13.12,1.625,18.593-3.087l1.441-.574a33.5,33.5,0,0,0,5.689-5.916q.011-.687.021-1.373c3.724-4.188,2.861-12.752,2.861-17.868h22.883c2.1-1.529,5.035-2.327,5.006-5.719l.715-1.429c-.95-.12-.656-.863-.715-1.429-.2-3.134-2.2-4.472-5.006-5l-1.43-.715H157.529v-14.3Zm-40.761,42.884h-90.1c-3.73-.18-4.856-1.306-5.007-5V46.7c-.283-3.618,1.9-4.775,5.007-5q43.6,0,87.2,0c6.257,0,7.908,1.651,7.908,7.9q0,43.579,0,87.155c-1.079,2.257-1.507,5.163-5.006,5" fill="#e9e600"/><path d="M123.632,186.643H119.9l-.233-.057A9.6,9.6,0,0,1,115,184.038a10.151,10.151,0,0,1-2.519-4.6l-.067-.253V158.259h-10.3v21l-.737.094c-.28,3.456-2.8,5.018-4.657,6.169-.419.259-.814.5-1.175.759l-.518.365H91.293l-.233-.057a9.6,9.6,0,0,1-4.661-2.549,10.146,10.146,0,0,1-2.519-4.6l-.067-.253V158.259H73.51v21l-.736.094c-.28,3.456-2.8,5.018-4.657,6.169-.419.259-.814.5-1.175.759l-.518.365H62.69l-.233-.057a9.6,9.6,0,0,1-4.662-2.549,10.145,10.145,0,0,1-2.519-4.6l-.067-.253V158.116c-.493.025-1.006.056-1.532.088-1.537.092-3.278.2-5,.2-2.949,0-7.088-.268-10.016-2.452a4.177,4.177,0,0,1-1.9-.756c-.1-.063-.23-.149-.281-.171l-.214-.088-.186-.134a27.762,27.762,0,0,1-6.2-6.194l-.283-.387-.077-.473q-.021-.13-.035-.261a13.942,13.942,0,0,1-2.677-6.372,34.8,34.8,0,0,1-.215-6.838,43.709,43.709,0,0,0-.005-4.809H5.472L5.23,129.4A9.79,9.79,0,0,1,.6,126.861a10,10,0,0,1-2.532-4.608L-2,122v-3.423l.092-.292A11.258,11.258,0,0,1,.321,114a6.41,6.41,0,0,1,4.134-2.076l.012-.759H26.4v-10.3H5.486l-.228-.054a9.453,9.453,0,0,1-4.676-2.56,10.353,10.353,0,0,1-2.511-4.574L-2,93.426V89.992l.092-.292A11.258,11.258,0,0,1,.321,85.415a6.41,6.41,0,0,1,4.134-2.076l.012-.759H26.4v-10.3H5.486l-.228-.054a9.457,9.457,0,0,1-4.676-2.56A10.351,10.351,0,0,1-1.929,65.1L-2,64.837V61.4l.092-.292A11.258,11.258,0,0,1,.321,56.825,6.41,6.41,0,0,1,4.455,54.75l.012-.759h22.1c-.021-.575-.048-1.167-.076-1.774-.241-5.3-.513-11.3,2.55-15.847l.321-.6.366-.682.067-.125.084-.114a27.776,27.776,0,0,1,6.2-6.194l.784-.562.6.17.031-.02a4.509,4.509,0,0,1,1.186-.592c5.024-2.113,10.267-2.2,15.338-2.275l1.2-.02,0-20.921C55.341,1.647,57.16.1,58.489-1.028c.191-.162.371-.315.544-.469L59.6-2h8.267l.36.145a7.114,7.114,0,0,1,4.5,5.8A21.145,21.145,0,0,1,74.2,12.2c.065,3.086-.178,6.4-.393,9.331-.094,1.286-.185,2.528-.242,3.648H83.813V4.448l.007-.082C84.045,1.634,85.775.117,87.166-1.1c.151-.133.294-.258.435-.385L88.171-2h8.782l.4.188A6.33,6.33,0,0,1,100.15.777a10.573,10.573,0,0,1,1.154,3.1,20.965,20.965,0,0,1,1.5,8.323c.065,3.086-.178,6.4-.393,9.332-.094,1.285-.185,2.527-.242,3.647h10.242V4.455l.006-.075c.207-2.742,1.941-4.254,3.334-5.468.159-.139.309-.269.457-.4l.57-.51h8.775l.4.188A6.328,6.328,0,0,1,128.754.777a10.848,10.848,0,0,1,1.2,3.324l.761.1V25.373l.444-.01c1.03-.023,2.094-.048,3.212-.048a36.945,36.945,0,0,1,7.091.557,13.719,13.719,0,0,1,6.075,2.571l.639.17,1.085.288.422.112.337.278a35.267,35.267,0,0,1,6.025,6.269l.382.516.011.68q0,.308.01.616c1.433,1.834,2.327,4.436,2.726,7.92a62.342,62.342,0,0,1,.195,8.7h19.876l1.613.806a8.684,8.684,0,0,1,4.167,1.952,6.764,6.764,0,0,1,2.156,4.532l1.794.227L187.2,65.066a6.1,6.1,0,0,1-1.6,3.83,12.306,12.306,0,0,1-2.9,2.168c-.476.285-.926.555-1.316.838l-.526.383H159.529v10.3h19.719l1.613.806a8.683,8.683,0,0,1,4.167,1.952,6.764,6.764,0,0,1,2.156,4.532l1.794.227L187.2,93.656a6.1,6.1,0,0,1-1.6,3.83,12.306,12.306,0,0,1-2.9,2.168c-.476.285-.926.555-1.316.838l-.526.383H159.529v10.3h19.719l1.613.806a8.683,8.683,0,0,1,4.167,1.952,6.764,6.764,0,0,1,2.156,4.532l1.794.227-1.779,3.559a6.1,6.1,0,0,1-1.6,3.83,12.306,12.306,0,0,1-2.9,2.168c-.477.286-.927.555-1.316.838l-.526.383H159.352q0,.219.01.442a58.9,58.9,0,0,1-.233,8.551,15.565,15.565,0,0,1-2.678,7.6h0q0,.339-.01.679l-.01.642-.382.516a35.236,35.236,0,0,1-6.025,6.27l-.241.2-.29.116-.713.284-.43.171a13.222,13.222,0,0,1-5.152,2.606,21.2,21.2,0,0,1-5.476.589c-.881,0-1.771-.027-2.631-.054-.839-.026-1.708-.053-2.547-.053-.666,0-1.269.017-1.827.053v22.1l-.854.015c-.585,2.878-2.84,4.276-4.539,5.329-.419.259-.814.5-1.175.759Zm-3.241-4h2c.279-.182.558-.354.831-.524,1.977-1.225,2.732-1.825,2.787-3.251a2.728,2.728,0,0,1,.714-1.836V154.577l1.684-.269a25.923,25.923,0,0,1,4.142-.286c.9,0,1.8.028,2.671.055s1.688.052,2.507.052c3.265,0,5.923-.416,8.284-2.449l.253-.218.31-.124.733-.292.416-.166a31.467,31.467,0,0,0,4.734-4.86V146q.005-.349.01-.7l.012-.743.494-.555c2.647-2.977,2.5-9.351,2.4-14.006-.021-.9-.04-1.749-.04-2.533v-2h24.263c.354-.231.709-.444,1.057-.653,1.913-1.146,2.581-1.67,2.569-3.049l0-.481.259-.517a3.33,3.33,0,0,1-.249-1.548c0-.048,0-.111,0-.141l0-.06a2.85,2.85,0,0,0-.873-2.123,5.177,5.177,0,0,0-2.509-1.043l-.274-.052-1.257-.628H155.529v-18.3h24.057c.354-.231.709-.444,1.057-.652,1.913-1.145,2.581-1.669,2.569-3.048l0-.481.259-.517a3.33,3.33,0,0,1-.249-1.548c0-.048,0-.111,0-.141l0-.06a2.85,2.85,0,0,0-.873-2.123,5.177,5.177,0,0,0-2.509-1.043l-.274-.052L178.3,86.58H155.529v-18.3h24.057c.354-.231.709-.444,1.057-.652,1.913-1.145,2.581-1.669,2.569-3.048l0-.481.259-.517a3.33,3.33,0,0,1-.249-1.548c0-.048,0-.111,0-.141l0-.06a2.85,2.85,0,0,0-.873-2.123,5.177,5.177,0,0,0-2.509-1.043l-.273-.052-1.257-.628H155.29l.032-2.032c.009-.573.027-1.192.045-1.848.132-4.687.332-11.77-2.358-14.615l-.536-.567-.011-.78q0-.357-.01-.715a31.405,31.405,0,0,0-4.64-4.782l-.661-.176-1.068-.284-.46-.122-.356-.316c-2.436-2.163-7.1-2.441-10.893-2.441-1.073,0-2.114.024-3.121.047-.9.021-1.751.04-2.536.04h-2V7.1a2.593,2.593,0,0,1-.455-.677,3.317,3.317,0,0,1-.255-1.561c0-.025,0-.054,0-.081-.382-1.728-.922-2.433-1.417-2.779H118.3c-1.131.988-1.784,1.623-1.884,2.616V29.177h-18.3v-2c0-1.678.152-3.748.312-5.94.4-5.513.907-12.375-.816-15.811l-.117-.234-.053-.256c-.382-1.843-.94-2.58-1.45-2.936h-6.3c-1.123.988-1.772,1.63-1.881,2.624V29.177H69.51v-2c0-1.678.152-3.749.312-5.941.4-5.513.907-12.374-.815-15.81l-.154-.308-.042-.342A3.234,3.234,0,0,0,67.053,2H61.1l-.024.02c-1.183,1-1.809,1.581-1.871,2.564V29.245l-1.935.063c-1.073.035-2.154.052-3.2.068-4.945.078-9.616.151-13.956,2.008l-.162.069-.1.022c-.051.03-.133.083-.2.124a3.925,3.925,0,0,1-1.807.715A23.976,23.976,0,0,0,33.182,37.1l-.3.559-.369.689-.052.1-.063.091c-2.372,3.453-2.13,8.788-1.916,13.5.063,1.385.122,2.693.122,3.955v2H7.614a2.735,2.735,0,0,1-1.863.714h-.06l-.06,0c-.081,0-.162-.005-.24-.005-1.475,0-2.466.539-3.391,3.325v2.262a5.378,5.378,0,0,0,3.968,4H30.4v18.3H7.614a2.735,2.735,0,0,1-1.863.715h-.06l-.06,0c-.081,0-.162-.005-.24-.005-1.475,0-2.466.539-3.391,3.325v2.262a5.377,5.377,0,0,0,3.968,4H30.4v18.3H7.614a2.735,2.735,0,0,1-1.863.714h-.06l-.06,0c-.081,0-.162-.005-.24-.005-1.475,0-2.466.539-3.391,3.325v2.274a5.389,5.389,0,0,0,3.983,3.989H30.028l.29,1.655a34.78,34.78,0,0,1,.266,7.293c-.147,4.238-.275,7.9,2.405,11.055l.545.642-.059.63a23.626,23.626,0,0,0,4.779,4.7,6.586,6.586,0,0,1,.674.4l.119.076.811-.235.829.765c1.451,1.338,3.989,1.961,7.989,1.961,1.6,0,3.208-.1,4.761-.189,1.358-.081,2.642-.158,3.771-.158h2v24.6a5.36,5.36,0,0,0,3.974,3.992h2c.279-.182.558-.354.831-.524,1.983-1.229,2.737-1.829,2.787-3.264l0-.069.005-.049c0-.03,0-.094,0-.142a3.318,3.318,0,0,1,.255-1.561,2.593,2.593,0,0,1,.455-.678v-22.1h18.3v24.392a5.36,5.36,0,0,0,3.974,3.992h2c.279-.182.558-.354.831-.524,1.983-1.229,2.737-1.829,2.787-3.264l0-.069.005-.049c0-.03,0-.094,0-.142a3.32,3.32,0,0,1,.255-1.561,2.593,2.593,0,0,1,.455-.677v-22.1h18.3v24.391A5.362,5.362,0,0,0,120.391,182.643Zm17.9-38.878c-.1,0-.209,0-.315-.006l-90.157,0c-1.765-.085-3.758-.362-5.163-1.766a7.41,7.41,0,0,1-1.745-5.154l0-.081V46.773a6.391,6.391,0,0,1,1.349-4.786c1.16-1.351,2.963-2.1,5.511-2.286l.073-.005H91.512q21.8,0,43.6,0a18.42,18.42,0,0,1,4.349.413,6.468,6.468,0,0,1,5.146,5.143,18.4,18.4,0,0,1,.413,4.347c0,20.8,0,41.951,0,62.4V137.21l-.2.409c-.163.341-.316.717-.478,1.115a10.825,10.825,0,0,1-1.741,3.167A5.485,5.485,0,0,1,138.288,143.765Zm-90.326-4.006,90.145,0c.062,0,.122,0,.181,0,1.19,0,1.53-.514,2.355-2.54.121-.3.244-.6.379-.9V112c0-20.453,0-41.6,0-62.4,0-2.67-.316-4.176-1.022-4.882s-2.214-1.021-4.886-1.021q-21.8,0-43.6,0H47.989a4.044,4.044,0,0,0-2.7.9,2.681,2.681,0,0,0-.39,1.95l.006.078v90.093a4.147,4.147,0,0,0,.575,2.448A4.263,4.263,0,0,0,47.962,139.759Z"/><path d="M136.429,128.913c1.884.242,2.911-1.252,4.256-2.1l2.088-4.961q.1-21.427.21-42.853a19.329,19.329,0,0,0-.768-3.7c-1.078-3.9-2.882-5.536-6.5-5.47-4.681-.236-5.888.725-7.032,5.6q.019,23.945.037,47.889c1.064,4.591,2.772,5.831,7.71,5.6" transform="translate(-13.431 -7.285)" fill="#e9e600"/><path d="M135.366,130.939h0c-2.639,0-4.429-.525-5.8-1.7-1.315-1.125-2.176-2.813-2.792-5.472l-.051-.222v-.228q-.009-12.043-.018-24.086-.009-11.9-.018-23.8v-.233l.053-.226c.554-2.359,1.186-4.189,2.47-5.449A7.2,7.2,0,0,1,134.54,67.8c.37,0,.766.01,1.208.032h.175a7.753,7.753,0,0,1,5.38,1.8,10.132,10.132,0,0,1,2.84,5.134,21.045,21.045,0,0,1,.834,4.081l.006.08v.08q-.053,10.889-.107,21.778-.052,10.538-.1,21.075l0,.4-.155.367-2.088,4.961-.244.579-.531.336a9.513,9.513,0,0,0-.852.645,6.311,6.311,0,0,1-4.071,1.792c-.153,0-.309-.007-.464-.021C136.013,130.932,135.684,130.939,135.366,130.939Zm-4.647-7.858c.814,3.372,1.754,3.858,4.647,3.858h0c.3,0,.624-.008.969-.025l.175-.008.174.022a1.159,1.159,0,0,0,.147.01c.426,0,.844-.323,1.547-.895.213-.173.442-.36.69-.544l1.708-4.059q.051-10.338.1-20.677.053-10.846.107-21.693a18.242,18.242,0,0,0-.695-3.241,6.577,6.577,0,0,0-1.635-3.2,3.779,3.779,0,0,0-2.73-.8l-.172,0h-.069l-.069,0c-.4-.02-.753-.03-1.074-.03-1.713,0-2.242.293-2.533.579a7.391,7.391,0,0,0-1.325,3.286q.009,11.784.018,23.568Q130.709,111.155,130.719,123.081Z" transform="translate(-13.431 -7.285)"/><path d="M64.595,126.163l.691,1.4c5.3,2.919,8.753,1.738,11.419-3.691.688-1.4.626-3.154,1.97-4.239a5.367,5.367,0,0,1,.159-.6c4.758-.005,9.516-.053,14.273.022.914.014,2.151-.665,2.745.734a2.676,2.676,0,0,1,.172.635c1.063,1.33,1.066,3.308,2.644,4.324,2.426,4.974,6.527,5.611,10.62,2.135,3.106-2.638,1.209-5.7,1.523-8.58a1.306,1.306,0,0,0,.114-.6c-1.36-.91-.931-2.776-2.045-3.818-1.528-5.579-4.889-10.5-5.808-16.3-.433-.065-.735-.225-.537-.745Q99.9,90.06,97.267,83.279c-.095-1.892-1.214-3.387-1.96-5.027.018-.245.035-.491.053-.736l-.238.086c-1.593-6.124-3.312-7.851-7.747-7.784h-.723a4.776,4.776,0,0,0-5.587,2.757l-1.474,2.872q-.063,1-.125,2a8.914,8.914,0,0,0-1.953,5.117.563.563,0,0,0-.2.585c-1.267.926-1.021,2.652-1.979,3.742-.075,1.4-1.064,2.373-1.654,3.533.568,1.331-.646,2.332-.658,3.555A6.674,6.674,0,0,0,71.6,98.174a8.919,8.919,0,0,0-1.953,5.119.562.562,0,0,0-.2.585c-1.274.922-1.017,2.655-1.981,3.74-.073,1.4-1.063,2.375-1.652,3.536.542,1.693-.833,2.85-1.2,4.288-.216.5.056,1.265-.763,1.452q-.116.7-.229,1.406c-.793,2.759-1.338,5.488.976,7.863m20.053-23.538c1.07-1.386.805-3.584,2.718-4.458,1.731,1.659,1.515,4.2,3.191,6.318h-6.4c.156-.588.325-1.223.494-1.86" transform="translate(-6.569 -7.275)" fill="#e9e600"/><path d="M70.265,131.112h0a12.423,12.423,0,0,1-5.943-1.8l-.55-.3-.839-1.695a7.524,7.524,0,0,1-1.99-4.857,14.68,14.68,0,0,1,.72-4.594l.006-.039q.1-.627.2-1.254l.218-1.326.524-.12a3.1,3.1,0,0,1,.089-.3,8.588,8.588,0,0,1,.758-1.743c.418-.785.526-1.053.441-1.318l-.25-.783.372-.733a13.476,13.476,0,0,1,.714-1.2,3.551,3.551,0,0,0,.725-1.533l.037-.7.465-.524a3.326,3.326,0,0,0,.386-.96,6.185,6.185,0,0,1,1.22-2.443,2.525,2.525,0,0,1,.162-.365,10.875,10.875,0,0,1,1.9-5.1,8.574,8.574,0,0,1,1.464-4.194,6.8,6.8,0,0,1,.5-1.453,4.549,4.549,0,0,0,.232-.6l-.352-.824.423-.834a13.524,13.524,0,0,1,.713-1.2,3.561,3.561,0,0,0,.726-1.534l.037-.692.458-.521a3.372,3.372,0,0,0,.392-.969,6.238,6.238,0,0,1,1.217-2.438,2.532,2.532,0,0,1,.164-.37,10.887,10.887,0,0,1,1.909-5.119l.022-.358q.031-.5.062-1l.026-.417.191-.371.733-1.427.74-1.441a6.633,6.633,0,0,1,6.155-3.96,8.87,8.87,0,0,1,1.379.113h.542l.258,0c2.793,0,4.706.695,6.2,2.253A12.371,12.371,0,0,1,96.45,75l1.13-.408-.224,3.073-.015.205c.121.243.252.49.388.747a11.25,11.25,0,0,1,1.511,4.218l1.9,4.888,3.116,8.022.565.085.229,1.446a36.828,36.828,0,0,0,3.026,8.877,56.481,56.481,0,0,1,2.606,6.749,6.159,6.159,0,0,1,1.012,2.248,2.551,2.551,0,0,0,.346.9l.843.564.044,1.013a3.3,3.3,0,0,1-.141,1.114,11.827,11.827,0,0,0,.141,2c.269,2.17.638,5.142-2.34,7.67a9.934,9.934,0,0,1-6.306,2.662c-2.93,0-5.463-1.769-7.177-5a7.182,7.182,0,0,1-1.992-3.093,5.59,5.59,0,0,0-.645-1.309l-.34-.426-.04-.282a5.984,5.984,0,0,1-.945.09h-.06c-1.8-.029-3.753-.042-6.13-.042-1.485,0-3,.005-4.459.01l-2.36.007-.2.158a3.2,3.2,0,0,0-.765,1.678,10.744,10.744,0,0,1-.666,1.886,13.492,13.492,0,0,1-3.393,4.6A7.46,7.46,0,0,1,70.265,131.112Zm-3.473-5.018a8.044,8.044,0,0,0,3.472,1.018h0c1.22,0,2.85-.469,4.645-4.125a7.537,7.537,0,0,0,.405-1.2,7.251,7.251,0,0,1,1.567-3.211q.025-.082.052-.164l.45-1.376,1.448,0c1.213,0,2.447-.006,3.641-.01,1.465,0,2.981-.01,4.473-.01,2.4,0,4.367.013,6.193.042.062,0,.243-.029.375-.05a6.663,6.663,0,0,1,1.055-.1,3.244,3.244,0,0,1,3.124,2.105l.011.026a4.685,4.685,0,0,1,.189.563,10.118,10.118,0,0,1,.928,1.9c.334.836.542,1.321.929,1.57l.47.3.245.5c.712,1.459,1.951,3.2,3.811,3.2a6.087,6.087,0,0,0,3.717-1.711c1.275-1.082,1.21-2.1.959-4.129a14.658,14.658,0,0,1-.158-2.828,6.342,6.342,0,0,1-.956-2.173,3.074,3.074,0,0,0-.326-.88l-.413-.387-.149-.546a49.428,49.428,0,0,0-2.544-6.664,44.377,44.377,0,0,1-3.125-8.831,2.34,2.34,0,0,1-.488-.588,2.4,2.4,0,0,1-.32-1.272l-3.066-7.892L95.286,83.7l-.016-.323a7.329,7.329,0,0,0-1.079-2.9l-.184-.351-.268.1-.361-1.388-.1-.224.01-.131-.1-.379c-.722-2.773-1.415-4.4-2.249-5.265-.512-.532-1.268-1.025-3.319-1.025l-.213,0h-.929l-.173-.031a5,5,0,0,0-.865-.082,2.663,2.663,0,0,0-2.59,1.774l0,.009L82.1,74.932l-.542,1.057-.036.577q-.031.5-.063,1.008l-.044.7-.474.52a7.047,7.047,0,0,0-1.449,4.033l-.081.607.119.566-1.043.762a2.5,2.5,0,0,0-.448,1.02,7.376,7.376,0,0,1-.792,1.872,7.7,7.7,0,0,1-1.282,2.83l-.162.253a5.077,5.077,0,0,1-.552,2.637,3.627,3.627,0,0,0-.237.627l-.007.671-.414.532a4.688,4.688,0,0,0-1,2.973l0,.77-.518.57a7.028,7.028,0,0,0-1.45,4.035l-.081.615.119.569-1.051.76a2.475,2.475,0,0,0-.439,1.008,7.3,7.3,0,0,1-.794,1.878,7.7,7.7,0,0,1-1.279,2.828c-.064.1-.127.2-.188.294a5.968,5.968,0,0,1-.92,3.455,5.184,5.184,0,0,0-.446.975l-.038.151-.012.027-.008.068a3.469,3.469,0,0,1-.349,1.276,2.633,2.633,0,0,1-.464.635l-.061.374-.044.273-.033.114c-.814,2.834-.949,4.442.486,5.915l.22.226Zm27.9-19.609H81.554l.667-2.513.346-1.3.253-.95.247-.319a4.676,4.676,0,0,0,.519-1.223,5.683,5.683,0,0,1,2.951-3.832l1.234-.563.98.939a9,9,0,0,1,2.184,3.958,8.185,8.185,0,0,0,1.193,2.564Zm-7.684-4h.318q-.077-.222-.148-.437C87.12,102.192,87.065,102.338,87,102.485Z" transform="translate(-6.569 -7.275)"/></g></g><path d="M0,0H0M0,0V0M0-3H28a3,3,0,0,1,3,3,3,3,0,0,1-3,3H3V28a3,3,0,0,1-3,3,3,3,0,0,1-3-3V0A3,3,0,0,1,0-3Z" transform="translate(1620 2759) rotate(180)" fill="#e9e600"/><path d="M0,0H0M0,0V0M0-3H28a3,3,0,0,1,3,3,3,3,0,0,1-3,3H3V28a3,3,0,0,1-3,3,3,3,0,0,1-3-3V0A3,3,0,0,1,0-3Z" transform="translate(1320 2494)" fill="#e9e600"/><path d="M0,0H0M0,0V0M0-3H28a3,3,0,0,1,3,3,3,3,0,0,1-3,3H3V28a3,3,0,0,1-3,3,3,3,0,0,1-3-3V0A3,3,0,0,1,0-3Z" transform="translate(1320 2759) rotate(-90)" fill="#e9e600"/><path d="M0,0H0M0,0V0M0-3H28a3,3,0,0,1,3,3,3,3,0,0,1-3,3H3V28a3,3,0,0,1-3,3,3,3,0,0,1-3-3V0A3,3,0,0,1,0-3Z" transform="translate(1620 2494) rotate(90)" fill="#e9e600"/></g></svg>