<svg xmlns="http://www.w3.org/2000/svg" xmlns:xlink="http://www.w3.org/1999/xlink" width="726" height="366" viewBox="0 0 726 366"><defs><clipPath id="a"><rect width="540.781" height="249.38"/></clipPath></defs><g transform="translate(-597 -1122)"><g transform="translate(690 1177)"><g clip-path="url(#a)"><path d="M268.985,172.474l.5-.45A71.752,71.752,0,0,0,280.2,159.9l-5.03-11.1-41.213.217v11.072H264.6l-.6.68a40.255,40.255,0,0,1-13.78,10.039,66.907,66.907,0,0,1-19.157,5.029c1.974,2.227,3.64,4.259,4.96,6.05,1.375,1.867,2.753,3.9,4.1,6.041a75.638,75.638,0,0,0,18.892-8.129l.2-.124.208.114c6.045,3.3,11.464,6.067,16.115,8.225a94.967,94.967,0,0,1,6.114-12.213,53.527,53.527,0,0,1-12.045-3.085Z" transform="translate(76.875 49.233)"/><path d="M300.655,149.067l.441-1.926H288.011a26.3,26.3,0,0,1-4.447,10.671,24.7,24.7,0,0,1-8.984,7.523,25.1,25.1,0,0,1,3.346,4.212,58.833,58.833,0,0,1,3.109,5.682l.285.588h-5.285a36.9,36.9,0,0,1,3.161,5.648c.762,1.771,1.649,4.1,2.635,6.935a128.124,128.124,0,0,0,17.425-2.659A47.517,47.517,0,0,0,311.878,181l1.97-1.252.187.064q2.017.691,6.186,2.044c.171-.29.352-.607.544-.948q.386-.693.888-1.524c1.165-2.038,2.17-3.728,2.98-5.016a29.43,29.43,0,0,1,2.436-3.309l-4.034-.752.335-.514a100.568,100.568,0,0,0,5.18-9.2l-5.211-11.524Zm13.483,12.084a54,54,0,0,1-3.943,5.435l-.18.217-.267-.089a69.5,69.5,0,0,1-10.865-4.556l-7.324,7.826a68.987,68.987,0,0,0,6.755,3.621l1.034.488-1.109.279a66.785,66.785,0,0,1-14.149,1.388l-1.321.024,1.076-.768a38.478,38.478,0,0,0,6.572-6.045,45.49,45.49,0,0,0,5.652-8.237l.117-.214h18.353Z" transform="translate(91.351 48.686)"/><path d="M320.847,165.873c3.794.012,7.332.18,10.527.5a77.586,77.586,0,0,1,9.354,1.507l1.521-9.163a88.99,88.99,0,0,0-9.953-1.96c-3.4-.472-7.251-.807-11.452-.994.156,1.789.235,3.529.235,5.184,0,1.68-.077,3.337-.232,4.931" transform="translate(106.742 51.537)"/><path d="M353.323,141.461a30.431,30.431,0,0,1-1.874,6.865l3.93.958a29.669,29.669,0,0,0,1.831-6.91Z" transform="translate(116.924 46.806)"/><path d="M357.957,142.581a34.156,34.156,0,0,1-1.918,6.915l3.931.96a28.27,28.27,0,0,0,1.834-6.915Z" transform="translate(118.451 47.177)"/><path d="M344.442,159.886l2.275-8.48c-5.259-2.354-12.294-4.054-20.922-5.059-.153,1.311-.4,2.848-.73,4.577s-.72,3.4-1.146,4.962c4.848.536,8.934,1.131,12.149,1.769a60.752,60.752,0,0,1,8.375,2.232" transform="translate(107.765 48.423)"/><path d="M358.6,148.159a44.579,44.579,0,0,1-3.336,12.992,18.881,18.881,0,0,1-6.987,8.266,34.341,34.341,0,0,1-11.742,4.486,88.123,88.123,0,0,1-16.347,1.355,27.832,27.832,0,0,1,3.091,5.691c.761,1.966,1.542,4.393,2.32,7.221a104.113,104.113,0,0,0,18.542-3.2,43.556,43.556,0,0,0,13.268-6.215,33.731,33.731,0,0,0,9.941-10.768c2.362-4.112,4.006-9.529,4.888-16.1-2.945-.693-5.487-1.323-7.559-1.871-1.987-.526-4.03-1.149-6.078-1.851" transform="translate(106.525 49.023)"/><path d="M410.958,147.719H397.67v3.247H365.922v11.4h20.863l-.7.7a42.744,42.744,0,0,1-9.655,7.334,45.032,45.032,0,0,1-12.447,4.218,57.521,57.521,0,0,1,3.637,6.338,45.667,45.667,0,0,1,2.509,6.839,100.047,100.047,0,0,0,16.252-9.444l.388-.282.219.426a20.824,20.824,0,0,1,1.686,4.437c.349,1.395.7,3.048,1.046,4.919a97.425,97.425,0,0,0,13.649-.712c2.9-.458,4.914-1.311,5.984-2.534s1.606-3.194,1.606-5.868V162.367h3.914v-11.4h-3.914ZM397.67,171.913a11.867,11.867,0,0,1-.29,3.028,2.61,2.61,0,0,1-1.3,1.682,5.905,5.905,0,0,1-2.728.488c-.83,0-2.124-.093-3.847-.277l-.988-.105.774-.622a47.217,47.217,0,0,0,7.65-7.53l.012-.015-8.873-6.2h9.6Z" transform="translate(121.094 48.877)"/><path d="M23.238,183.886q.358-8.748.357-16.125a6.328,6.328,0,0,0-1.281-4.166,4.036,4.036,0,0,0-3.248-1.546,4.105,4.105,0,0,0-3.336,1.755,8.741,8.741,0,0,0-1.61,4.79Q14,173.116,14,175.02q0,4.049.239,8.866H0q.476-8.568.477-16.185T0,151.4q3.932.178,6.018.178,2.2,0,6.018-.178l1.727,8.747a13.3,13.3,0,0,1,4.29-7.051,10.69,10.69,0,0,1,6.793-2.292,11.807,11.807,0,0,1,6.2,1.577,10.227,10.227,0,0,1,3.962,4.255,13.232,13.232,0,0,1,1.341,6.01v8.568q0,7.913.3,12.674Z" transform="translate(0 49.897)"/><path d="M62.446,169.011H43.022a7.15,7.15,0,0,0,2.354,4.253,7.858,7.858,0,0,0,5.333,1.637,11.435,11.435,0,0,0,4.707-.982,8.61,8.61,0,0,0,3.516-2.767,92.667,92.667,0,0,0,10.606,4.226,13.776,13.776,0,0,1-6.7,6.634q-4.858,2.469-12.662,2.469-10.129,0-14.985-4.671t-4.856-12.287a16,16,0,0,1,4.826-12.079q4.828-4.641,15.015-4.642a25.42,25.42,0,0,1,10.547,2.023,15.776,15.776,0,0,1,6.853,5.624,14.6,14.6,0,0,1,2.383,8.241,16.466,16.466,0,0,1-.12,2.321Zm-16.325-8.093a6.154,6.154,0,0,0-2.681,3.094H57.5a6.525,6.525,0,0,0-2.324-3.065,6.969,6.969,0,0,0-4.171-1.159,9.476,9.476,0,0,0-4.886,1.13" transform="translate(10.091 49.897)"/><path d="M67.661,179.695q-4.8-4.671-4.8-12.288a16.054,16.054,0,0,1,4.8-12.079q4.8-4.641,14.985-4.641a26.285,26.285,0,0,1,11.47,2.231,15.33,15.33,0,0,1,6.822,6.01,16.513,16.513,0,0,1,2.2,8.479q0,7.676-5.094,12.317t-15.4,4.642q-10.189,0-14.985-4.671m21-7.289a6.554,6.554,0,0,0,1.907-4.939,6.428,6.428,0,0,0-1.907-4.79q-1.907-1.875-5.78-1.875t-5.66,1.845a6.64,6.64,0,0,0-1.788,4.82,6.8,6.8,0,0,0,1.788,4.939q1.787,1.845,5.66,1.845t5.78-1.845" transform="translate(20.915 49.859)"/><path d="M118.7,183.942q.358-8.748.357-16.125a6.328,6.328,0,0,0-1.281-4.166,4.036,4.036,0,0,0-3.248-1.546,4.105,4.105,0,0,0-3.336,1.755,8.741,8.741,0,0,0-1.61,4.79q-.12,4.522-.119,6.425,0,4.049.239,8.866H95.464q.476-8.568.477-16.185t-.477-16.3q3.932.178,6.018.178,2.2,0,6.018-.178l1.727,8.747a13.3,13.3,0,0,1,4.29-7.051,10.69,10.69,0,0,1,6.793-2.292,11.807,11.807,0,0,1,6.2,1.577,10.227,10.227,0,0,1,3.962,4.255,13.232,13.232,0,0,1,1.341,6.01v8.568q0,7.913.3,12.674Z" transform="translate(31.76 49.916)"/><path d="M169.35,154.722,154.574,168.17q7.566,10.712,14.121,19.1H152.9l-3.039-4.879q-2.981-4.939-3.933-6.427l-4.946,4.522v6.784h-13.7q.476-11.305.477-22.908,0-11.663-.477-23.385h13.7v25.229q5.779-5.891,10.9-11.484Z" transform="translate(42.346 46.646)"/><path d="M201.388,151.249l-1.37,3.451q-5.661,15.054-11.858,29.037a27.679,27.679,0,0,1-9.294,11.455q-6.079,4.314-15.254,4.135-1.133-4.939-1.876-7.706a42.3,42.3,0,0,0-1.936-5.563,26.807,26.807,0,0,0,6.137.773,12.447,12.447,0,0,0,7.388-1.963q-2.145-6.366-5.066-13.685t-8.46-19.934H173.92q.716,2.977,1.966,6.9t2.5,7.557q.358,1.132,1.162,3.422t1.281,3.838l1.55-4.7q4.468-12.912,5.3-17.018Z" transform="translate(53.164 50.045)"/><path d="M195.465,179.81q-4.8-4.671-4.8-12.288a16.054,16.054,0,0,1,4.8-12.079q4.8-4.641,14.985-4.641a26.285,26.285,0,0,1,11.47,2.231,15.33,15.33,0,0,1,6.822,6.01,16.513,16.513,0,0,1,2.2,8.479q0,7.676-5.094,12.317t-15.4,4.642q-10.189,0-14.985-4.671m21-7.289a6.554,6.554,0,0,0,1.907-4.939,6.429,6.429,0,0,0-1.907-4.79q-1.907-1.875-5.78-1.875t-5.66,1.845a6.634,6.634,0,0,0-1.788,4.82,6.791,6.791,0,0,0,1.788,4.939q1.787,1.845,5.66,1.845t5.78-1.845" transform="translate(63.434 49.897)"/><path d="M225.5,16.828H196.1V38.945H112.95V68.3H196.1v8.3L112.95,127.242v33.543L196.1,110.143V171.6h29.4V68.3H256.8V38.945H225.5Z" transform="translate(37.578 5.568)"/><path d="M208.42,123.288v33.543l98.353-59.989-.232-34.885Z" transform="translate(69.34 20.5)"/><rect width="49.226" height="29.355" transform="translate(310.862 44.632)"/><path d="M133.787,74.044v-35.1H84.562V16.829h-29.4V38.945H0V68.3H81.744L0,115.019v35.488l55.167-31.529v52.667h29.4V102.179Z" transform="translate(0 5.568)"/><path d="M64.794,88.169,86.568,137.18h33.816L98.322,88.169Z" transform="translate(21.556 29.173)"/><path d="M287.826,145.34H321.64l21.775-49.011H309.887Z" transform="translate(95.757 31.873)"/><path d="M397.6,96.329H364.069l21.775,49.011h33.814Z" transform="translate(121.123 31.873)"/><path d="M433.3,11.2H381.254V0H347.073V11.2H295.022V33.6H433.3Z" transform="translate(98.151 0)"/><path d="M433.964,93.788V50.016L417.37,33.447H294.78v72.77h52.629v59.844h33.925V106.217h52.629Zm-29.4-16.866H324.175V62.8h80.393Z" transform="translate(98.071 11.067)"/></g></g><g transform="translate(-60 45)"><path d="M-4411,0h0m0,0V0m0-3h60a3,3,0,0,1,3,3,3,3,0,0,1-3,3h-57V45a3,3,0,0,1-3,3,3,3,0,0,1-3-3V0A3,3,0,0,1-4411-3Z" transform="translate(5071 1080)"/><path d="M60,45h0M0,45v0m60,3H0a3,3,0,0,1-3-3V0A3,3,0,0,1,0-3,3,3,0,0,1,3,0V42H60a3,3,0,0,1,0,6Z" transform="translate(1380 1125) rotate(180)"/></g><g transform="translate(-30 83.19)"><path d="M60,45h0M0,45v0m60,3H0a3,3,0,0,1-3-3V0A3,3,0,0,1,0-3,3,3,0,0,1,3,0V42H60a3,3,0,0,1,0,6Z" transform="translate(630 1356.81)"/><path d="M0,0H0M0,0V0M0-3H60a3,3,0,0,1,3,3,3,3,0,0,1-3,3H3V45a3,3,0,0,1-3,3,3,3,0,0,1-3-3V0A3,3,0,0,1,0-3Z" transform="translate(1350 1401.81) rotate(180)"/></g></g></svg>