<svg xmlns="http://www.w3.org/2000/svg" width="720" height="90" viewBox="0 0 720 90"><g transform="translate(-69 -52)"><path d="M50,0H720a0,0,0,0,1,0,0V40a50,50,0,0,1-50,50H0a0,0,0,0,1,0,0V50A50,50,0,0,1,50,0Z" transform="translate(69 52)" fill="#e9e600"/><path d="M50,2A47.958,47.958,0,0,0,2,50V88H670a47.958,47.958,0,0,0,48-48V2H50m0-2H720V40a50,50,0,0,1-50,50H0V50A50,50,0,0,1,50,0Z" transform="translate(69 52)" fill="rgba(255,0,0,0.5)"/><text transform="translate(396 78)" fill="#fff" font-size="25" font-family="CallingCode-Regular, Calling Code" opacity="0.7"><tspan x="-70" y="24">ACCEDER...</tspan></text></g></svg>