<svg xmlns="http://www.w3.org/2000/svg" width="25.876" height="26" viewBox="0 0 25.876 26"><path d="M.057,26l1.828-6.677a12.883,12.883,0,1,1,5,4.885L.057,26ZM7.2,21.876a10.683,10.683,0,1,0-2.972-2.889L3.15,22.939,7.2,21.876ZM19.54,15.956c-.08-.134-.295-.214-.618-.376s-1.9-.94-2.2-1.048-.509-.161-.725.161-.832,1.048-1.019,1.262-.376.242-.7.08a8.786,8.786,0,0,1-2.589-1.6A9.691,9.691,0,0,1,9.9,12.208c-.187-.322-.019-.5.141-.656.145-.144.322-.376.483-.564a2.112,2.112,0,0,0,.325-.536.592.592,0,0,0-.027-.564c-.081-.16-.725-1.745-.992-2.39-.262-.627-.528-.543-.725-.553l-.618-.011a1.179,1.179,0,0,0-.858.4A3.612,3.612,0,0,0,6.5,10.022a6.265,6.265,0,0,0,1.314,3.33,14.353,14.353,0,0,0,5.5,4.861,18.627,18.627,0,0,0,1.835.678,4.425,4.425,0,0,0,2.028.128,3.316,3.316,0,0,0,2.173-1.531,2.682,2.682,0,0,0,.187-1.532Z" transform="translate(-0.057)" fill="#fff"/></svg>