<svg xmlns="http://www.w3.org/2000/svg" width="26" height="26" viewBox="0 0 26 26"><path d="M13,2.342c3.471,0,3.882.013,5.253.076a7.2,7.2,0,0,1,2.414.448,4.029,4.029,0,0,1,1.495.972,4.028,4.028,0,0,1,.972,1.495,7.194,7.194,0,0,1,.448,2.414c.062,1.371.076,1.782.076,5.253s-.013,3.882-.076,5.253a7.194,7.194,0,0,1-.448,2.414,4.3,4.3,0,0,1-2.467,2.467,7.192,7.192,0,0,1-2.414.448c-1.371.063-1.782.076-5.253.076s-3.882-.013-5.253-.076a7.191,7.191,0,0,1-2.414-.448,4.026,4.026,0,0,1-1.495-.972,4.028,4.028,0,0,1-.972-1.495,7.194,7.194,0,0,1-.448-2.414c-.063-1.371-.076-1.782-.076-5.253s.013-3.882.076-5.253a7.194,7.194,0,0,1,.448-2.414,4.028,4.028,0,0,1,.972-1.495,4.028,4.028,0,0,1,1.495-.972,7.2,7.2,0,0,1,2.414-.448C9.118,2.356,9.529,2.342,13,2.342M13,0C9.469,0,9.027.015,7.64.078a9.542,9.542,0,0,0-3.156.6,6.372,6.372,0,0,0-2.3,1.5,6.372,6.372,0,0,0-1.5,2.3,9.542,9.542,0,0,0-.6,3.156C.015,9.027,0,9.469,0,13s.015,3.973.078,5.36a9.542,9.542,0,0,0,.6,3.156,6.373,6.373,0,0,0,1.5,2.3,6.372,6.372,0,0,0,2.3,1.5,9.541,9.541,0,0,0,3.156.6C9.027,25.985,9.469,26,13,26s3.973-.015,5.36-.078a9.541,9.541,0,0,0,3.156-.6,6.647,6.647,0,0,0,3.8-3.8,9.543,9.543,0,0,0,.6-3.156C25.985,16.973,26,16.531,26,13s-.015-3.973-.078-5.36a9.544,9.544,0,0,0-.6-3.156,6.372,6.372,0,0,0-1.5-2.3,6.372,6.372,0,0,0-2.3-1.5,9.542,9.542,0,0,0-3.156-.6C16.973.015,16.53,0,13,0Zm0,6.324A6.676,6.676,0,1,0,19.676,13,6.676,6.676,0,0,0,13,6.324Zm0,11.009A4.333,4.333,0,1,1,17.333,13,4.333,4.333,0,0,1,13,17.333ZM21.5,6.061a1.56,1.56,0,1,1-1.56-1.56A1.56,1.56,0,0,1,21.5,6.061Z" transform="translate(0 0)" fill="#fff"/></svg>