<svg xmlns="http://www.w3.org/2000/svg" width="1972.002" height="1240" viewBox="0 0 1972.002 1240"><path d="M-3170.023,1212.369l-7.674,8.211h-804.848l-13.647,14.606h-126.33l-41.978-.033v-9.05H-4411V938.843h0V307.9h0v-15.51h0V19.41h67.5l4.56-4.881,107.665-.032,11.726,12.547,7.136-7.634,14.057.009,9.06,9.7h320.183l9.058-9.7,136.119,0L-3705.8,0l25.82,27.633,7.674-8.212h804.848l13.648-14.6h126.329l41.977.032v.28H-2439V292.388h0V923.333h0v15.51h0v281.749l-67.5,0-4.56,4.881-107.665.032-11.727-12.548-7.135,7.635-14.057-.01-9.061-9.694h-320.182l-9.058,9.694-136.117,0L-3144.2,1240Z" transform="translate(4411.001 -0.001)" fill="#e9e600"/></svg>