<svg xmlns="http://www.w3.org/2000/svg" width="3355.002" height="1080" viewBox="0 0 3355.002 1080"><path d="M-4411,1080V364.325h0V18.92h65.725l4.438-4.757,104.827-.032,11.416,12.231,6.949-7.442,13.686.008,8.821,9.451H-3883.4l8.822-9.451,132.525,0L-3724.392,0l25.139,26.935,7.471-8h783.626L-2894.869,4.7h322.74l13.288,14.236h783.626l7.47,8L-1742.607,0l17.662,18.931,132.527,0,8.82,9.451h311.74l8.82-9.452,13.687-.009,6.948,7.444,11.416-12.233,104.827.033,4.439,4.756,65.724,0V364.325H-2491V1080Z" transform="translate(4411)" fill="red"/></svg>