<svg xmlns="http://www.w3.org/2000/svg" width="34.08" height="24.701" viewBox="0 0 34.08 24.701"><g transform="translate(1 1)"><path d="M6.663,66.393H25.418a7.671,7.671,0,0,1,7.663,7.663v9.376a7.671,7.671,0,0,1-7.663,7.663H6.663A7.671,7.671,0,0,1-1,83.431V74.056A7.671,7.671,0,0,1,6.663,66.393Zm18.755,22.7a5.669,5.669,0,0,0,5.663-5.663V74.056a5.669,5.669,0,0,0-5.663-5.663H6.663A5.669,5.669,0,0,0,1,74.056v9.376a5.669,5.669,0,0,0,5.663,5.663Zm-13.43-16.01a1.358,1.358,0,0,1,.611.147l8.772,4.445a1.352,1.352,0,0,1-.029,2.427L12.57,84.286a1.351,1.351,0,0,1-1.934-1.22V74.436A1.354,1.354,0,0,1,11.988,73.084Zm7.3,5.78-6.657-3.373v6.548Z" transform="translate(0 -67.393)" fill="#fff"/></g></svg>